<?xml version="1.0" encoding="UTF-8" standalone="no"?>
<svg
   xmlns:dc="http://purl.org/dc/elements/1.1/"
   xmlns:cc="http://creativecommons.org/ns#"
   xmlns:rdf="http://www.w3.org/1999/02/22-rdf-syntax-ns#"
   xmlns:svg="http://www.w3.org/2000/svg"
   xmlns="http://www.w3.org/2000/svg"
   viewBox="0 0 564.38135 704.29102"
   height="704.29102"
   width="564.38135"
   xml:space="preserve"
   version="1.1"
   id="svg2"><metadata
     id="metadata8"><rdf:RDF><cc:Work
         rdf:about=""><dc:format>image/svg+xml</dc:format><dc:type
           rdf:resource="http://purl.org/dc/dcmitype/StillImage" /><dc:title></dc:title></cc:Work></rdf:RDF></metadata><defs
     id="defs6"><clipPath
       id="clipPath18"
       clipPathUnits="userSpaceOnUse"><path
         id="path20"
         d="m 0,0 432,0 0,496.8 -432,0 L 0,0 Z" /></clipPath><clipPath
       id="clipPath38"
       clipPathUnits="userSpaceOnUse"><path
         id="path40"
         d="m 0,0 432,0 0,496.8 -432,0 L 0,0 Z" /></clipPath></defs><g
     transform="matrix(1.25,0,0,-1.25,13.553735,699.30349)"
     id="g10"><g
       id="g12" /><g
       id="g14"><g
         clip-path="url(#clipPath18)"
         id="g16" /></g><g
       id="g22" /><g
       id="g24"><text
         id="text26"
         style="font-variant:normal;font-weight:normal;font-size:7px;font-family:'Open Sans';-inkscape-font-specification:OpenSans;writing-mode:lr-tb;fill:#000000;fill-opacity:1;fill-rule:nonzero;stroke:none"
         transform="matrix(1,0,0,-1,80.93,514.08)"><tspan
           id="tspan28"
           y="0"
           x="0 4.2140002 8.4420004 12.74 15.596 17.416 19.187 23.114 24.934 27.65 31.577 35.875 39.382 43.610001 45.381001 47.201 51.492001 55.418999 58.757999 60.577999 64.504997 66.975998 69.692001 73.584 77.882004 81.718002 85.644997 88.500999 91.839996 93.660004 96.991997 99.848 101.619 108.129 109.9 114.198 118.125 119.896 123.235 125.055 127.127 131.131 135.13499 136.955 140.959 144.963 146.783 150.787 154.791 158.795 162.799">Pour le renvoi des étrangers criminels (28 11 2010)</tspan></text>
<text
         id="text30"
         style="font-variant:normal;font-weight:normal;font-size:7px;font-family:'Open Sans';-inkscape-font-specification:OpenSans;writing-mode:lr-tb;fill:#000000;fill-opacity:1;fill-rule:nonzero;stroke:none"
         transform="matrix(1,0,0,-1,263.93,514.08)"><tspan
           id="tspan32"
           y="0"
           x="0 4.2909999 7.6300001">dsi</tspan></text>
</g><text
       y="-21.24"
       x="136.5"
       id="text42"
       style="font-variant:normal;font-weight:normal;font-size:7px;font-family:'Open Sans';-inkscape-font-specification:OpenSans;writing-mode:lr-tb;fill:#000000;fill-opacity:1;fill-rule:nonzero;stroke:none"
       transform="scale(1,-1)"><tspan
         id="tspan44"
         y="-21.24"
         x="136.5 140.52499 144.41699 148.715">Vaud</tspan></text>
<text
       y="-31.73"
       x="103.32"
       id="text46"
       style="font-variant:normal;font-weight:normal;font-size:7px;font-family:'Open Sans';-inkscape-font-specification:OpenSans;writing-mode:lr-tb;fill:#000000;fill-opacity:1;fill-rule:nonzero;stroke:none"
       transform="scale(1,-1)"><tspan
         id="tspan48"
         y="-31.73"
         x="103.32 107.856 111.748 115.087 116.858 120.785 124.789 129.20599 130.97701 133.448 136.696 138.411 140.231 142.10001 146.39799 149.114">Basle−City, Jura</tspan></text>
<text
       y="-42.220001"
       x="91.769997"
       id="text50"
       style="font-variant:normal;font-weight:normal;font-size:7px;font-family:'Open Sans';-inkscape-font-specification:OpenSans;writing-mode:lr-tb;fill:#000000;fill-opacity:1;fill-rule:nonzero;stroke:none"
       transform="scale(1,-1)"><tspan
         id="tspan52"
         y="-42.220001"
         x="91.769997 97.047997 100.975 105.273 108.605 112.903 116.795 119.266 123.193 124.964 126.679 128.49899 133.595 137.522 141.81999 145.60699 149.114">Neuchâtel, Geneva</tspan></text>
<text
       y="-94.660004"
       x="125.33"
       id="text54"
       style="font-variant:normal;font-weight:normal;font-size:7px;font-family:'Open Sans';-inkscape-font-specification:OpenSans;writing-mode:lr-tb;fill:#000000;fill-opacity:1;fill-rule:nonzero;stroke:none"
       transform="scale(1,-1)"><tspan
         id="tspan56"
         y="-94.660004"
         x="125.33 128.942 131.798 133.569 137.86 142.088 146.386 149.172">Fribourg</tspan></text>
<text
       y="-115.64"
       x="132.46001"
       id="text58"
       style="font-variant:normal;font-weight:normal;font-size:7px;font-family:'Open Sans';-inkscape-font-specification:OpenSans;writing-mode:lr-tb;fill:#000000;fill-opacity:1;fill-rule:nonzero;stroke:none"
       transform="scale(1,-1)"><tspan
         id="tspan60"
         y="-115.64"
         x="132.46001 136.457 140.755 143.61099 145.382 148.714">Zurich</tspan></text>
<text
       y="-126.12"
       x="134.32001"
       id="text62"
       style="font-variant:normal;font-weight:normal;font-size:7px;font-family:'Open Sans';-inkscape-font-specification:OpenSans;writing-mode:lr-tb;fill:#000000;fill-opacity:1;fill-rule:nonzero;stroke:none"
       transform="scale(1,-1)"><tspan
         id="tspan64"
         y="-126.12"
         x="134.32001 138.345 142.237 144.008 147.89999 149.67101">Valais</tspan></text>
<text
       y="-136.61"
       x="128.08"
       id="text66"
       style="font-variant:normal;font-weight:normal;font-size:7px;font-family:'Open Sans';-inkscape-font-specification:OpenSans;writing-mode:lr-tb;fill:#000000;fill-opacity:1;fill-rule:nonzero;stroke:none"
       transform="scale(1,-1)"><tspan
         id="tspan68"
         y="-136.61"
         x="128.08 133.17599 136.032 137.80299 141.142 145.37 149.668">Grisons</tspan></text>
<text
       y="-147.10001"
       x="82.370003"
       id="text70"
       style="font-variant:normal;font-weight:normal;font-size:7px;font-family:'Open Sans';-inkscape-font-specification:OpenSans;writing-mode:lr-tb;fill:#000000;fill-opacity:1;fill-rule:nonzero;stroke:none"
       transform="scale(1,-1)"><tspan
         id="tspan72"
         y="-147.10001"
         x="82.370003 86.905998 90.833 93.689003 97.987 101.914 103.629 105.449 109.985 113.877 117.216 118.987 122.914 126.918 131.33501 135.563 139.86101 144.159 146.63 149.48599">Berne, Basle−Country</tspan></text>
<text
       y="-157.59"
       x="140.88"
       id="text74"
       style="font-variant:normal;font-weight:normal;font-size:7px;font-family:'Open Sans';-inkscape-font-specification:OpenSans;writing-mode:lr-tb;fill:#000000;fill-opacity:1;fill-rule:nonzero;stroke:none"
       transform="scale(1,-1)"><tspan
         id="tspan76"
         y="-157.59"
         x="140.88 144.877 149.175">Zug</tspan></text>
<text
       y="-168.07001"
       x="-3.53"
       id="text78"
       style="font-variant:normal;font-weight:normal;font-size:7px;font-family:'Open Sans';-inkscape-font-specification:OpenSans;writing-mode:lr-tb;fill:#000000;fill-opacity:1;fill-rule:nonzero;stroke:none"
       transform="scale(1,-1)"><tspan
         id="tspan80"
         y="-168.07001"
         x="-3.53 0.1029999 4.401 7.7329993 11.66 14.516 18.813999 22.740999 24.455999 26.275999 30.118998 33.451 37.749001 41.641003 44.014 46.387001 50.685001 54.577 58.875 62.214005 66.140999 70.439003 72.153999 73.973999 78.404999 82.695999 86.987 90.914001 95.211998 98.487999 102.415 104.186 105.957 107.777 113.23 117.528 119.999 123.926 126.782 128.60201 132.92799 137.226 141.45399 145.745 149.672">Lucerne, Schaffhausen, Appenzell Outer Rhodes</tspan></text>
<text
       y="-178.56"
       x="128.7"
       id="text82"
       style="font-variant:normal;font-weight:normal;font-size:7px;font-family:'Open Sans';-inkscape-font-specification:OpenSans;writing-mode:lr-tb;fill:#000000;fill-opacity:1;fill-rule:nonzero;stroke:none"
       transform="scale(1,-1)"><tspan
         id="tspan84"
         y="-178.56"
         x="128.7 133.131 135.91701 139.75301 143.841 147.34801 149.119">Argovia</tspan></text>
<text
       y="-189.05"
       x="120.72"
       id="text86"
       style="font-variant:normal;font-weight:normal;font-size:7px;font-family:'Open Sans';-inkscape-font-specification:OpenSans;writing-mode:lr-tb;fill:#000000;fill-opacity:1;fill-rule:nonzero;stroke:none"
       transform="scale(1,-1)"><tspan
         id="tspan88"
         y="-189.05"
         x="120.72 124.563 128.791 130.562 134.78999 137.261 141.55901 145.85699 148.713">Solothurn</tspan></text>
<text
       y="-210.03"
       x="101.62"
       id="text90"
       style="font-variant:normal;font-weight:normal;font-size:7px;font-family:'Open Sans';-inkscape-font-specification:OpenSans;writing-mode:lr-tb;fill:#000000;fill-opacity:1;fill-rule:nonzero;stroke:none"
       transform="scale(1,-1)"><tspan
         id="tspan92"
         y="-210.03"
         x="101.62 107.073 111.224 116.67 120.562 122.333 126.624 128.339 130.159 134.002 136.47301 140.47701 145.573 149.465 151.23601">Obwald, St−Gall</tspan></text>
<text
       y="-220.50999"
       x="29.540001"
       id="text94"
       style="font-variant:normal;font-weight:normal;font-size:7px;font-family:'Open Sans';-inkscape-font-specification:OpenSans;writing-mode:lr-tb;fill:#000000;fill-opacity:1;fill-rule:nonzero;stroke:none"
       transform="scale(1,-1)"><tspan
         id="tspan96"
         y="-220.50999"
         x="29.540001 34.636002 37.492001 39.263 40.978001 42.798 48.076 49.847 54.138 59.584 63.476002 65.247002 69.538002 71.252998 73.072998 78.168999 79.940002 83.832001 86.687996 90.986 94.325005 96.040001 97.860001 101.731 106.029 110.327 113.113 116.949 121.037 124.544 126.315 130.207 131.922 133.742 137.61299 139.384 142.716 144.487 148.785">Uri, Nidwald, Glarus, Thurgovia, Ticino</tspan></text>
<text
       y="-272.95001"
       x="48.389999"
       id="text98"
       style="font-variant:normal;font-weight:normal;font-size:7px;font-family:'Open Sans';-inkscape-font-specification:OpenSans;writing-mode:lr-tb;fill:#000000;fill-opacity:1;fill-rule:nonzero;stroke:none"
       transform="scale(1,-1)"><tspan
         id="tspan100"
         y="-272.95001"
         x="48.389999 52.233002 55.564999 59.862999 65.308998 68.836998 72.112999 73.828003 75.648003 80.079002 84.370003 88.661003 92.588005 96.886002 100.162 104.089 105.86 107.631 109.451 111.404 115.702 120 123.927 126.783 128.603 132.929 137.22701 141.455 145.746 149.673">Schwyz, Appenzell Inner Rhodes</tspan></text>
<text
       y="-42.220001"
       x="278.98999"
       id="text102"
       style="font-variant:normal;font-weight:normal;font-size:7px;font-family:'Open Sans';-inkscape-font-specification:OpenSans;writing-mode:lr-tb;fill:#000000;fill-opacity:1;fill-rule:nonzero;stroke:none"
       transform="scale(1,-1)"><tspan
         id="tspan104"
         y="-42.220001"
         x="278.98999 284.44299 288.59399 294.04001 297.93201 299.703 303.99399 305.70901 307.52899 311.95999 316.25101 320.54199 324.46899 328.767 332.043 335.97 337.741 339.51199 341.332 343.285 347.58301 351.88101 355.80801 358.664 360.48401 364.81 369.108 373.336 377.62701 381.55402">Obwald, Appenzell Inner Rhodes</tspan></text>
<text
       y="-63.200001"
       x="278.98999"
       id="text106"
       style="font-variant:normal;font-weight:normal;font-size:7px;font-family:'Open Sans';-inkscape-font-specification:OpenSans;writing-mode:lr-tb;fill:#000000;fill-opacity:1;fill-rule:nonzero;stroke:none"
       transform="scale(1,-1)"><tspan
         id="tspan108"
         y="-63.200001"
         x="278.98999 284.086 286.94199">Uri</tspan></text>
<text
       y="-94.660004"
       x="278.98999"
       id="text110"
       style="font-variant:normal;font-weight:normal;font-size:7px;font-family:'Open Sans';-inkscape-font-specification:OpenSans;writing-mode:lr-tb;fill:#000000;fill-opacity:1;fill-rule:nonzero;stroke:none"
       transform="scale(1,-1)"><tspan
         id="tspan112"
         y="-94.660004"
         x="278.98999 282.83301 286.16501 290.46301 295.909 299.43701 302.71301 304.42801 306.24799 310.091 313.423 317.72101 321.61301 323.98599 326.35901 330.65701 334.54901 338.84698 342.186 346.11301 350.41101 352.12601 353.94601 358.37701 362.668 366.95901 370.88602 375.18399 378.45999 382.38699 384.15799 385.92902 387.74899 393.202 397.5 399.97101 403.89801 406.754 408.57401 412.89999 417.198 421.42599 425.71701 429.64401">Schwyz, Schaffhausen, Appenzell Outer Rhodes</tspan></text>
<text
       y="-105.15"
       x="278.98999"
       id="text114"
       style="font-variant:normal;font-weight:normal;font-size:7px;font-family:'Open Sans';-inkscape-font-specification:OpenSans;writing-mode:lr-tb;fill:#000000;fill-opacity:1;fill-rule:nonzero;stroke:none"
       transform="scale(1,-1)"><tspan
         id="tspan116"
         y="-105.15"
         x="278.98999 284.26801 286.039 290.32999 295.776 299.668 301.439 305.73001 307.44501 309.26501 313.13599 317.43399 321.73199 324.51801 328.354 332.44199 335.94901 337.72">Nidwald, Thurgovia</tspan></text>
<text
       y="-126.12"
       x="278.98999"
       id="text118"
       style="font-variant:normal;font-weight:normal;font-size:7px;font-family:'Open Sans';-inkscape-font-specification:OpenSans;writing-mode:lr-tb;fill:#000000;fill-opacity:1;fill-rule:nonzero;stroke:none"
       transform="scale(1,-1)"><tspan
         id="tspan120"
         y="-126.12"
         x="278.98999 284.086 285.85699 289.74899 292.60501 296.90302 300.242 301.957 303.77701 307.62 310.091 314.095 319.19101 323.08301 324.854">Glarus, St−Gall</tspan></text>
<text
       y="-147.10001"
       x="278.98999"
       id="text122"
       style="font-variant:normal;font-weight:normal;font-size:7px;font-family:'Open Sans';-inkscape-font-specification:OpenSans;writing-mode:lr-tb;fill:#000000;fill-opacity:1;fill-rule:nonzero;stroke:none"
       transform="scale(1,-1)"><tspan
         id="tspan124"
         y="-147.10001"
         x="278.98999 284.086 286.94199 288.71301 292.052 296.28 300.578">Grisons</tspan></text>
<text
       y="-157.59"
       x="278.98999"
       id="text126"
       style="font-variant:normal;font-weight:normal;font-size:7px;font-family:'Open Sans';-inkscape-font-specification:OpenSans;writing-mode:lr-tb;fill:#000000;fill-opacity:1;fill-rule:nonzero;stroke:none"
       transform="scale(1,-1)"><tspan
         id="tspan128"
         y="-157.59"
         x="278.98999 282.62299 286.92099 290.25299 294.17999 297.03601 301.33401 305.26099 306.97601 308.79599 312.63901 316.867 318.638 322.866 325.33701 329.63501 333.93301 336.789">Lucerne, Solothurn</tspan></text>
<text
       y="-178.56"
       x="278.98999"
       id="text130"
       style="font-variant:normal;font-weight:normal;font-size:7px;font-family:'Open Sans';-inkscape-font-specification:OpenSans;writing-mode:lr-tb;fill:#000000;fill-opacity:1;fill-rule:nonzero;stroke:none"
       transform="scale(1,-1)"><tspan
         id="tspan132"
         y="-178.56"
         x="278.98999 283.526 287.453 290.30899 294.60699 298.534 300.24899 302.069 306.09399 309.98599 311.75699 315.64899 317.42001">Berne, Valais</tspan></text>
<text
       y="-189.05"
       x="278.98999"
       id="text134"
       style="font-variant:normal;font-weight:normal;font-size:7px;font-family:'Open Sans';-inkscape-font-specification:OpenSans;writing-mode:lr-tb;fill:#000000;fill-opacity:1;fill-rule:nonzero;stroke:none"
       transform="scale(1,-1)"><tspan
         id="tspan136"
         y="-189.05"
         x="278.98999 282.987 287.285 291.121 292.836 294.65601 299.08701 301.87299 305.70901 309.797 313.30399 315.07501">Zug, Argovia</tspan></text>
<text
       y="-220.50999"
       x="278.98999"
       id="text138"
       style="font-variant:normal;font-weight:normal;font-size:7px;font-family:'Open Sans';-inkscape-font-specification:OpenSans;writing-mode:lr-tb;fill:#000000;fill-opacity:1;fill-rule:nonzero;stroke:none"
       transform="scale(1,-1)"><tspan
         id="tspan140"
         y="-220.50999"
         x="278.98999 283.526 287.418 290.75699 292.52802 296.45499 300.45901 304.87601 309.104 313.40201 317.70001 320.17099 323.02701 326.27499 327.98999 329.81 333.681 335.452 338.784 340.55499 344.853">Basle−Country, Ticino</tspan></text>
<text
       y="-241.49001"
       x="278.98999"
       id="text142"
       style="font-variant:normal;font-weight:normal;font-size:7px;font-family:'Open Sans';-inkscape-font-specification:OpenSans;writing-mode:lr-tb;fill:#000000;fill-opacity:1;fill-rule:nonzero;stroke:none"
       transform="scale(1,-1)"><tspan
         id="tspan144"
         y="-241.49001"
         x="278.98999 283.526 287.418 290.75699 292.52802 296.45499 300.45901 304.87601 306.647 309.11801">Basle−City</tspan></text>
<text
       y="-262.47"
       x="278.98999"
       id="text146"
       style="font-variant:normal;font-weight:normal;font-size:7px;font-family:'Open Sans';-inkscape-font-specification:OpenSans;writing-mode:lr-tb;fill:#000000;fill-opacity:1;fill-rule:nonzero;stroke:none"
       transform="scale(1,-1)"><tspan
         id="tspan148"
         y="-262.47"
         x="278.98999 282.987 287.285 290.14099 291.91199 295.24399">Zurich</tspan></text>
<text
       y="-283.44"
       x="278.98999"
       id="text150"
       style="font-variant:normal;font-weight:normal;font-size:7px;font-family:'Open Sans';-inkscape-font-specification:OpenSans;writing-mode:lr-tb;fill:#000000;fill-opacity:1;fill-rule:nonzero;stroke:none"
       transform="scale(1,-1)"><tspan
         id="tspan152"
         y="-283.44"
         x="278.98999 282.60199 285.45801 287.229 291.51999 295.74799 300.04599 302.832 306.668 308.383 310.203 312.07199 316.37 319.086">Fribourg, Jura</tspan></text>
<text
       y="-367.35001"
       x="278.98999"
       id="text154"
       style="font-variant:normal;font-weight:normal;font-size:7px;font-family:'Open Sans';-inkscape-font-specification:OpenSans;writing-mode:lr-tb;fill:#000000;fill-opacity:1;fill-rule:nonzero;stroke:none"
       transform="scale(1,-1)"><tspan
         id="tspan156"
         y="-367.35001"
         x="278.98999 284.26801 288.19501 292.49301 295.82501 300.12299 304.01501 306.48599 310.41299">Neuchâtel</tspan></text>
<text
       y="-440.76001"
       x="278.98999"
       id="text158"
       style="font-variant:normal;font-weight:normal;font-size:7px;font-family:'Open Sans';-inkscape-font-specification:OpenSans;writing-mode:lr-tb;fill:#000000;fill-opacity:1;fill-rule:nonzero;stroke:none"
       transform="scale(1,-1)"><tspan
         id="tspan160"
         y="-440.76001"
         x="278.98999 284.086 288.013 292.311 296.09799 299.60501">Geneva</tspan></text>
<text
       y="-472.22"
       x="278.98999"
       id="text162"
       style="font-variant:normal;font-weight:normal;font-size:7px;font-family:'Open Sans';-inkscape-font-specification:OpenSans;writing-mode:lr-tb;fill:#000000;fill-opacity:1;fill-rule:nonzero;stroke:none"
       transform="scale(1,-1)"><tspan
         id="tspan164"
         y="-472.22"
         x="278.98999 283.01501 286.90701 291.20499">Vaud</tspan></text>
<text
       y="-114.49"
       x="158.78999"
       id="text166"
       style="font-variant:normal;font-weight:normal;font-size:8px;font-family:'Open Sans';-inkscape-font-specification:OpenSans;writing-mode:lr-tb;fill:#000000;fill-opacity:1;fill-rule:nonzero;stroke:none"
       transform="scale(1,-1)"><tspan
         id="tspan168"
         y="-114.49"
         x="158.78999 163.366">51</tspan></text>
<text
       y="-261.28"
       x="264.06"
       id="text170"
       style="font-variant:normal;font-weight:normal;font-size:8px;font-family:'Open Sans';-inkscape-font-specification:OpenSans;writing-mode:lr-tb;fill:#000000;fill-opacity:1;fill-rule:nonzero;stroke:none"
       transform="scale(1,-1)"><tspan
         id="tspan172"
         y="-261.28"
         x="264.06 268.63599">65</tspan></text>
<text
       y="-145.92999"
       x="158.78999"
       id="text174"
       style="font-variant:normal;font-weight:normal;font-size:8px;font-family:'Open Sans';-inkscape-font-specification:OpenSans;writing-mode:lr-tb;fill:#000000;fill-opacity:1;fill-rule:nonzero;stroke:none"
       transform="scale(1,-1)"><tspan
         id="tspan176"
         y="-145.92999"
         x="158.78999 163.366">54</tspan></text>
<text
       y="-177.41"
       x="264.06"
       id="text178"
       style="font-variant:normal;font-weight:normal;font-size:8px;font-family:'Open Sans';-inkscape-font-specification:OpenSans;writing-mode:lr-tb;fill:#000000;fill-opacity:1;fill-rule:nonzero;stroke:none"
       transform="scale(1,-1)"><tspan
         id="tspan180"
         y="-177.41"
         x="264.06 268.63599">57</tspan></text>
<text
       y="-166.88"
       x="158.78999"
       id="text182"
       style="font-variant:normal;font-weight:normal;font-size:8px;font-family:'Open Sans';-inkscape-font-specification:OpenSans;writing-mode:lr-tb;fill:#000000;fill-opacity:1;fill-rule:nonzero;stroke:none"
       transform="scale(1,-1)"><tspan
         id="tspan184"
         y="-166.88"
         x="158.78999 163.366">56</tspan></text>
<text
       y="-156.44"
       x="264.06"
       id="text186"
       style="font-variant:normal;font-weight:normal;font-size:8px;font-family:'Open Sans';-inkscape-font-specification:OpenSans;writing-mode:lr-tb;fill:#000000;fill-opacity:1;fill-rule:nonzero;stroke:none"
       transform="scale(1,-1)"><tspan
         id="tspan188"
         y="-156.44"
         x="264.06 268.63599">55</tspan></text>
<text
       y="-219.32001"
       x="158.78999"
       id="text190"
       style="font-variant:normal;font-weight:normal;font-size:8px;font-family:'Open Sans';-inkscape-font-specification:OpenSans;writing-mode:lr-tb;fill:#000000;fill-opacity:1;fill-rule:nonzero;stroke:none"
       transform="scale(1,-1)"><tspan
         id="tspan192"
         y="-219.32001"
         x="158.78999 163.366">61</tspan></text>
<text
       y="-62.009998"
       x="264.06"
       id="text194"
       style="font-variant:normal;font-weight:normal;font-size:8px;font-family:'Open Sans';-inkscape-font-specification:OpenSans;writing-mode:lr-tb;fill:#000000;fill-opacity:1;fill-rule:nonzero;stroke:none"
       transform="scale(1,-1)"><tspan
         id="tspan196"
         y="-62.009998"
         x="264.06 268.63599">46</tspan></text>
<text
       y="-271.76001"
       x="158.78999"
       id="text198"
       style="font-variant:normal;font-weight:normal;font-size:8px;font-family:'Open Sans';-inkscape-font-specification:OpenSans;writing-mode:lr-tb;fill:#000000;fill-opacity:1;fill-rule:nonzero;stroke:none"
       transform="scale(1,-1)"><tspan
         id="tspan200"
         y="-271.76001"
         x="158.78999 163.366">66</tspan></text>
<text
       y="-93.470001"
       x="264.06"
       id="text202"
       style="font-variant:normal;font-weight:normal;font-size:8px;font-family:'Open Sans';-inkscape-font-specification:OpenSans;writing-mode:lr-tb;fill:#000000;fill-opacity:1;fill-rule:nonzero;stroke:none"
       transform="scale(1,-1)"><tspan
         id="tspan204"
         y="-93.470001"
         x="264.06 268.63599">49</tspan></text>
<text
       y="-208.83"
       x="158.78999"
       id="text206"
       style="font-variant:normal;font-weight:normal;font-size:8px;font-family:'Open Sans';-inkscape-font-specification:OpenSans;writing-mode:lr-tb;fill:#000000;fill-opacity:1;fill-rule:nonzero;stroke:none"
       transform="scale(1,-1)"><tspan
         id="tspan208"
         y="-208.83"
         x="158.78999 163.366">60</tspan></text>
<text
       y="-41.009998"
       x="264.06"
       id="text210"
       style="font-variant:normal;font-weight:normal;font-size:8px;font-family:'Open Sans';-inkscape-font-specification:OpenSans;writing-mode:lr-tb;fill:#000000;fill-opacity:1;fill-rule:nonzero;stroke:none"
       transform="scale(1,-1)"><tspan
         id="tspan212"
         y="-41.009998"
         x="264.06 268.63599">44</tspan></text>
<text
       y="-103.95"
       x="264.06"
       id="text214"
       style="font-variant:normal;font-weight:normal;font-size:8px;font-family:'Open Sans';-inkscape-font-specification:OpenSans;writing-mode:lr-tb;fill:#000000;fill-opacity:1;fill-rule:nonzero;stroke:none"
       transform="scale(1,-1)"><tspan
         id="tspan216"
         y="-103.95"
         x="264.06 268.63599">50</tspan></text>
<text
       y="-124.93"
       x="264.06"
       id="text218"
       style="font-variant:normal;font-weight:normal;font-size:8px;font-family:'Open Sans';-inkscape-font-specification:OpenSans;writing-mode:lr-tb;fill:#000000;fill-opacity:1;fill-rule:nonzero;stroke:none"
       transform="scale(1,-1)"><tspan
         id="tspan220"
         y="-124.93"
         x="264.06 268.63599">52</tspan></text>
<text
       y="-156.44"
       x="158.78999"
       id="text222"
       style="font-variant:normal;font-weight:normal;font-size:8px;font-family:'Open Sans';-inkscape-font-specification:OpenSans;writing-mode:lr-tb;fill:#000000;fill-opacity:1;fill-rule:nonzero;stroke:none"
       transform="scale(1,-1)"><tspan
         id="tspan224"
         y="-156.44"
         x="158.78999 163.366">55</tspan></text>
<text
       y="-187.86"
       x="264.06"
       id="text226"
       style="font-variant:normal;font-weight:normal;font-size:8px;font-family:'Open Sans';-inkscape-font-specification:OpenSans;writing-mode:lr-tb;fill:#000000;fill-opacity:1;fill-rule:nonzero;stroke:none"
       transform="scale(1,-1)"><tspan
         id="tspan228"
         y="-187.86"
         x="264.06 268.63599">58</tspan></text>
<text
       y="-93.470001"
       x="158.78999"
       id="text230"
       style="font-variant:normal;font-weight:normal;font-size:8px;font-family:'Open Sans';-inkscape-font-specification:OpenSans;writing-mode:lr-tb;fill:#000000;fill-opacity:1;fill-rule:nonzero;stroke:none"
       transform="scale(1,-1)"><tspan
         id="tspan232"
         y="-93.470001"
         x="158.78999 163.366">49</tspan></text>
<text
       y="-282.25"
       x="264.06"
       id="text234"
       style="font-variant:normal;font-weight:normal;font-size:8px;font-family:'Open Sans';-inkscape-font-specification:OpenSans;writing-mode:lr-tb;fill:#000000;fill-opacity:1;fill-rule:nonzero;stroke:none"
       transform="scale(1,-1)"><tspan
         id="tspan236"
         y="-282.25"
         x="264.06 268.63599">67</tspan></text>
<text
       y="-187.86"
       x="158.78999"
       id="text238"
       style="font-variant:normal;font-weight:normal;font-size:8px;font-family:'Open Sans';-inkscape-font-specification:OpenSans;writing-mode:lr-tb;fill:#000000;fill-opacity:1;fill-rule:nonzero;stroke:none"
       transform="scale(1,-1)"><tspan
         id="tspan240"
         y="-187.86"
         x="158.78999 163.366">58</tspan></text>
<text
       y="-30.540001"
       x="158.78999"
       id="text242"
       style="font-variant:normal;font-weight:normal;font-size:8px;font-family:'Open Sans';-inkscape-font-specification:OpenSans;writing-mode:lr-tb;fill:#000000;fill-opacity:1;fill-rule:nonzero;stroke:none"
       transform="scale(1,-1)"><tspan
         id="tspan244"
         y="-30.540001"
         x="158.78999 163.366">43</tspan></text>
<text
       y="-240.3"
       x="264.06"
       id="text246"
       style="font-variant:normal;font-weight:normal;font-size:8px;font-family:'Open Sans';-inkscape-font-specification:OpenSans;writing-mode:lr-tb;fill:#000000;fill-opacity:1;fill-rule:nonzero;stroke:none"
       transform="scale(1,-1)"><tspan
         id="tspan248"
         y="-240.3"
         x="264.06 268.63599">63</tspan></text>
<text
       y="-219.32001"
       x="264.06"
       id="text250"
       style="font-variant:normal;font-weight:normal;font-size:8px;font-family:'Open Sans';-inkscape-font-specification:OpenSans;writing-mode:lr-tb;fill:#000000;fill-opacity:1;fill-rule:nonzero;stroke:none"
       transform="scale(1,-1)"><tspan
         id="tspan252"
         y="-219.32001"
         x="264.06 268.63599">61</tspan></text>
<text
       y="-135.42"
       x="158.78999"
       id="text254"
       style="font-variant:normal;font-weight:normal;font-size:8px;font-family:'Open Sans';-inkscape-font-specification:OpenSans;writing-mode:lr-tb;fill:#000000;fill-opacity:1;fill-rule:nonzero;stroke:none"
       transform="scale(1,-1)"><tspan
         id="tspan256"
         y="-135.42"
         x="158.78999 163.366">53</tspan></text>
<text
       y="-145.92999"
       x="264.06"
       id="text258"
       style="font-variant:normal;font-weight:normal;font-size:8px;font-family:'Open Sans';-inkscape-font-specification:OpenSans;writing-mode:lr-tb;fill:#000000;fill-opacity:1;fill-rule:nonzero;stroke:none"
       transform="scale(1,-1)"><tspan
         id="tspan260"
         y="-145.92999"
         x="264.06 268.63599">54</tspan></text>
<text
       y="-177.41"
       x="158.78999"
       id="text262"
       style="font-variant:normal;font-weight:normal;font-size:8px;font-family:'Open Sans';-inkscape-font-specification:OpenSans;writing-mode:lr-tb;fill:#000000;fill-opacity:1;fill-rule:nonzero;stroke:none"
       transform="scale(1,-1)"><tspan
         id="tspan264"
         y="-177.41"
         x="158.78999 163.366">57</tspan></text>
<text
       y="-20.01"
       x="158.78999"
       id="text266"
       style="font-variant:normal;font-weight:normal;font-size:8px;font-family:'Open Sans';-inkscape-font-specification:OpenSans;writing-mode:lr-tb;fill:#000000;fill-opacity:1;fill-rule:nonzero;stroke:none"
       transform="scale(1,-1)"><tspan
         id="tspan268"
         y="-20.01"
         x="158.78999 163.366">42</tspan></text>
<text
       y="-471.03"
       x="264.06"
       id="text270"
       style="font-variant:normal;font-weight:normal;font-size:8px;font-family:'Open Sans';-inkscape-font-specification:OpenSans;writing-mode:lr-tb;fill:#000000;fill-opacity:1;fill-rule:nonzero;stroke:none"
       transform="scale(1,-1)"><tspan
         id="tspan272"
         y="-471.03"
         x="264.06 268.63599">85</tspan></text>
<text
       y="-124.93"
       x="158.78999"
       id="text274"
       style="font-variant:normal;font-weight:normal;font-size:8px;font-family:'Open Sans';-inkscape-font-specification:OpenSans;writing-mode:lr-tb;fill:#000000;fill-opacity:1;fill-rule:nonzero;stroke:none"
       transform="scale(1,-1)"><tspan
         id="tspan276"
         y="-124.93"
         x="158.78999 163.366">52</tspan></text>
<text
       y="-41.009998"
       x="158.78999"
       id="text278"
       style="font-variant:normal;font-weight:normal;font-size:8px;font-family:'Open Sans';-inkscape-font-specification:OpenSans;writing-mode:lr-tb;fill:#000000;fill-opacity:1;fill-rule:nonzero;stroke:none"
       transform="scale(1,-1)"><tspan
         id="tspan280"
         y="-41.009998"
         x="158.78999 163.366">44</tspan></text>
<text
       y="-366.20001"
       x="264.06"
       id="text282"
       style="font-variant:normal;font-weight:normal;font-size:8px;font-family:'Open Sans';-inkscape-font-specification:OpenSans;writing-mode:lr-tb;fill:#000000;fill-opacity:1;fill-rule:nonzero;stroke:none"
       transform="scale(1,-1)"><tspan
         id="tspan284"
         y="-366.20001"
         x="264.06 268.63599">75</tspan></text>
<text
       y="-439.57001"
       x="264.06"
       id="text286"
       style="font-variant:normal;font-weight:normal;font-size:8px;font-family:'Open Sans';-inkscape-font-specification:OpenSans;writing-mode:lr-tb;fill:#000000;fill-opacity:1;fill-rule:nonzero;stroke:none"
       transform="scale(1,-1)"><tspan
         id="tspan288"
         y="-439.57001"
         x="264.06 268.63599">82</tspan></text>
<path
       id="path290"
       style="fill:none;stroke:#ab3d3f;stroke-width:1.88999999;stroke-linecap:round;stroke-linejoin:round;stroke-miterlimit:10;stroke-dasharray:none;stroke-opacity:1"
       d="m 168.63,124.64 94.74,132.15" /><path
       id="path292"
       style="fill:none;stroke:#ab3d3f;stroke-width:1.33000004;stroke-linecap:round;stroke-linejoin:round;stroke-miterlimit:10;stroke-dasharray:none;stroke-opacity:1"
       d="m 168.63,150.34 94.74,28.32" /><path
       id="path294"
       style="fill:none;stroke:#ab3d3f;stroke-width:0.51999998;stroke-linecap:round;stroke-linejoin:round;stroke-miterlimit:10;stroke-dasharray:none;stroke-opacity:1"
       d="m 168.63,169.22 94.74,-9.44" /><path
       id="path296"
       style="fill:none;stroke:#ab3d3f;stroke-width:0.05;stroke-linecap:round;stroke-linejoin:round;stroke-miterlimit:10;stroke-dasharray:none;stroke-opacity:1"
       d="M 168.63,214.31 263.37,72.73" /><path
       id="path298"
       style="fill:none;stroke:#ab3d3f;stroke-width:0.2;stroke-linecap:round;stroke-linejoin:round;stroke-miterlimit:10;stroke-dasharray:none;stroke-opacity:1"
       d="M 168.63,265.71 263.37,105.24" /><path
       id="path300"
       style="fill:none;stroke:#ab3d3f;stroke-width:0.05;stroke-linecap:round;stroke-linejoin:round;stroke-miterlimit:10;stroke-dasharray:none;stroke-opacity:1"
       d="M 168.63,203.3 263.37,52.28" /><path
       id="path302"
       style="fill:none;stroke:#ab3d3f;stroke-width:0.06;stroke-linecap:round;stroke-linejoin:round;stroke-miterlimit:10;stroke-dasharray:none;stroke-opacity:1"
       d="M 168.63,216.41 263.37,112.58" /><path
       id="path304"
       style="fill:none;stroke:#ab3d3f;stroke-width:0.05;stroke-linecap:round;stroke-linejoin:round;stroke-miterlimit:10;stroke-dasharray:none;stroke-opacity:1"
       d="m 168.63,217.46 94.74,-84.95" /><path
       id="path306"
       style="fill:none;stroke:#ab3d3f;stroke-width:0.16;stroke-linecap:round;stroke-linejoin:round;stroke-miterlimit:10;stroke-dasharray:none;stroke-opacity:1"
       d="m 168.63,160.83 94.74,28.31" /><path
       id="path308"
       style="fill:none;stroke:#366096;stroke-width:0.38999999;stroke-linecap:round;stroke-linejoin:round;stroke-miterlimit:10;stroke-dasharray:none;stroke-opacity:1"
       d="m 168.63,105.76 94.74,169.91" /><path
       id="path310"
       style="fill:none;stroke:#ab3d3f;stroke-width:0.34999999;stroke-linecap:round;stroke-linejoin:round;stroke-miterlimit:10;stroke-dasharray:none;stroke-opacity:1"
       d="m 168.63,189.14 94.74,-28.31" /><path
       id="path312"
       style="fill:none;stroke:#ab3d3f;stroke-width:0.25;stroke-linecap:round;stroke-linejoin:round;stroke-miterlimit:10;stroke-dasharray:none;stroke-opacity:1"
       d="m 168.63,43.89 94.74,188.78" /><path
       id="path314"
       style="fill:none;stroke:#ab3d3f;stroke-width:0.37;stroke-linecap:round;stroke-linejoin:round;stroke-miterlimit:10;stroke-dasharray:none;stroke-opacity:1"
       d="m 168.63,152.44 94.74,66.07" /><path
       id="path316"
       style="fill:none;stroke:#ab3d3f;stroke-width:0.1;stroke-linecap:round;stroke-linejoin:round;stroke-miterlimit:10;stroke-dasharray:none;stroke-opacity:1"
       d="M 168.63,166.07 263.37,100" /><path
       id="path318"
       style="fill:none;stroke:#ab3d3f;stroke-width:0.07;stroke-linecap:round;stroke-linejoin:round;stroke-miterlimit:10;stroke-dasharray:none;stroke-opacity:1"
       d="M 168.63,166.07 263.37,100" /><path
       id="path320"
       style="fill:none;stroke:#ab3d3f;stroke-width:0.02;stroke-linecap:round;stroke-linejoin:round;stroke-miterlimit:10;stroke-dasharray:none;stroke-opacity:1"
       d="M 168.63,263.08 263.37,55.42" /><path
       id="path322"
       style="fill:none;stroke:#ab3d3f;stroke-width:0.64999998;stroke-linecap:round;stroke-linejoin:round;stroke-miterlimit:10;stroke-dasharray:none;stroke-opacity:1"
       d="m 168.63,207.5 94.74,-75.52" /><path
       id="path324"
       style="fill:none;stroke:#ab3d3f;stroke-width:0.25999999;stroke-linecap:round;stroke-linejoin:round;stroke-miterlimit:10;stroke-dasharray:none;stroke-opacity:1"
       d="m 168.63,138.8 94.74,9.44" /><path
       id="path326"
       style="fill:none;stroke:#ab3d3f;stroke-width:0.83999997;stroke-linecap:round;stroke-linejoin:round;stroke-miterlimit:10;stroke-dasharray:none;stroke-opacity:1"
       d="m 168.63,180.75 94.74,9.44" /><path
       id="path328"
       style="fill:none;stroke:#ab3d3f;stroke-width:0.34;stroke-linecap:round;stroke-linejoin:round;stroke-miterlimit:10;stroke-dasharray:none;stroke-opacity:1"
       d="M 168.63,216.41 263.37,112.58" /><path
       id="path330"
       style="fill:none;stroke:#366096;stroke-width:0.46000001;stroke-linecap:round;stroke-linejoin:round;stroke-miterlimit:10;stroke-dasharray:none;stroke-opacity:1"
       d="m 168.63,222.18 94.74,0" /><path
       id="path332"
       style="fill:none;stroke:#366096;stroke-width:0.99000001;stroke-linecap:round;stroke-linejoin:round;stroke-miterlimit:10;stroke-dasharray:none;stroke-opacity:1"
       d="m 168.63,45.46 94.74,405.88" /><path
       id="path334"
       style="fill:none;stroke:#366096;stroke-width:0.43000001;stroke-linecap:round;stroke-linejoin:round;stroke-miterlimit:10;stroke-dasharray:none;stroke-opacity:1"
       d="m 168.63,130.41 94.74,47.2" /><path
       id="path336"
       style="fill:none;stroke:#366096;stroke-width:0.23;stroke-linecap:round;stroke-linejoin:round;stroke-miterlimit:10;stroke-dasharray:none;stroke-opacity:1"
       d="m 168.63,60.14 94.74,292.61" /><path
       id="path338"
       style="fill:none;stroke:#366096;stroke-width:0.62;stroke-linecap:round;stroke-linejoin:round;stroke-miterlimit:10;stroke-dasharray:none;stroke-opacity:1"
       d="M 168.63,63.81 263.37,422.5" /><path
       id="path340"
       style="fill:none;stroke:#366096;stroke-width:0.1;stroke-linecap:round;stroke-linejoin:round;stroke-miterlimit:10;stroke-dasharray:none;stroke-opacity:1"
       d="m 168.63,45.98 94.74,226.54" /></g></svg>