<?xml version="1.0" encoding="UTF-8" standalone="no"?>
<!-- Created with Inkscape (http://www.inkscape.org/) -->

<svg
   xmlns:dc="http://purl.org/dc/elements/1.1/"
   xmlns:cc="http://creativecommons.org/ns#"
   xmlns:rdf="http://www.w3.org/1999/02/22-rdf-syntax-ns#"
   xmlns:svg="http://www.w3.org/2000/svg"
   xmlns="http://www.w3.org/2000/svg"
   xmlns:sodipodi="http://sodipodi.sourceforge.net/DTD/sodipodi-0.dtd"
   xmlns:inkscape="http://www.inkscape.org/namespaces/inkscape"
   id="svg2"
   version="1.1"
   inkscape:version="0.91 r13725"
   xml:space="preserve"
   width="900"
   height="900"
   viewBox="0 0 900 900"
   sodipodi:docname="dpi_it.svg"><metadata
     id="metadata8"><rdf:RDF><cc:Work
         rdf:about=""><dc:format>image/svg+xml</dc:format><dc:type
           rdf:resource="http://purl.org/dc/dcmitype/StillImage" /></cc:Work></rdf:RDF></metadata><defs
     id="defs6"><clipPath
       clipPathUnits="userSpaceOnUse"
       id="clipPath18"><path
         d="m 74.34,629.188 617.32,0 0,-551.477 -617.32,0 0,551.477 z"
         id="path20"
         inkscape:connector-curvature="0" /></clipPath><clipPath
       clipPathUnits="userSpaceOnUse"
       id="clipPath28"><path
         d="m 74,84 618,0 0,539 -618,0 0,-539 z"
         id="path30"
         inkscape:connector-curvature="0" /></clipPath><clipPath
       clipPathUnits="userSpaceOnUse"
       id="clipPath38"><path
         d="m 74,622.199 618,0 0,-538 -618,0 0,538 z"
         id="path40"
         inkscape:connector-curvature="0" /></clipPath><clipPath
       clipPathUnits="userSpaceOnUse"
       id="clipPath48"><path
         d="m 74,84 618,0 0,539 -618,0 0,-539 z"
         id="path50"
         inkscape:connector-curvature="0" /></clipPath></defs><sodipodi:namedview
     pagecolor="#ffffff"
     bordercolor="#666666"
     borderopacity="1"
     objecttolerance="10"
     gridtolerance="10"
     guidetolerance="10"
     inkscape:pageopacity="0"
     inkscape:pageshadow="2"
     inkscape:window-width="2554"
     inkscape:window-height="1392"
     id="namedview4"
     showgrid="false"
     inkscape:zoom="1.1496664"
     inkscape:cx="276.03649"
     inkscape:cy="484.7927"
     inkscape:window-x="1280"
     inkscape:window-y="0"
     inkscape:window-maximized="0"
     inkscape:current-layer="g10" /><g
     id="g10"
     inkscape:groupmode="layer"
     inkscape:label="dpi_fr"
     transform="matrix(1.25,0,0,-1.25,0,900)"><g
       id="g12" /><g
       id="g32" /><path
       inkscape:connector-curvature="0"
       id="path54"
       style="fill:none;stroke:#d3d3d3;stroke-width:0.11;stroke-linecap:round;stroke-linejoin:round;stroke-miterlimit:10;stroke-dasharray:none;stroke-opacity:1"
       d="m 74.34,205 617.308,0" /><path
       inkscape:connector-curvature="0"
       id="path56"
       style="fill:none;stroke:#d3d3d3;stroke-width:0.11;stroke-linecap:round;stroke-linejoin:round;stroke-miterlimit:10;stroke-dasharray:none;stroke-opacity:1"
       d="m 74.34,367.25 617.308,0" /><path
       inkscape:connector-curvature="0"
       id="path58"
       style="fill:none;stroke:#d3d3d3;stroke-width:0.11;stroke-linecap:round;stroke-linejoin:round;stroke-miterlimit:10;stroke-dasharray:none;stroke-opacity:1"
       d="m 74.34,529.5 617.308,0" /><path
       inkscape:connector-curvature="0"
       id="path60"
       style="fill:none;stroke:#663333;stroke-width:1.05999994;stroke-linecap:butt;stroke-linejoin:round;stroke-miterlimit:1;stroke-dasharray:1.06, 3.19;stroke-dashoffset:0;stroke-opacity:1"
       d="m 102.398,125.141 7.102,5.707 7.102,5.711 7.109,5.711 7.098,5.718 7.101,5.711 7.11,5.711 7.101,5.711 7.109,5.719 7.098,5.711 7.102,5.707 7.109,5.711 7.102,5.711 7.097,5.718 7.114,5.711 7.097,5.711 7.11,5.707 7.101,5.723 7.102,5.711 7.109,5.707 7.098,5.711 7.101,5.719 7.11,5.711 7.101,5.711 7.11,5.71 7.097,5.719 7.102,5.711 7.109,5.711 7.102,5.707 7.109,5.723 7.102,5.707 7.097,5.711 7.11,5.711 7.101,5.718 7.102,5.711 7.109,5.711 7.098,5.707 7.109,5.723 7.102,5.711 7.101,5.707 7.11,5.711 7.097,5.711 7.102,5.719 7.109,5.711 7.102,5.71 7.109,5.708 7.102,5.722 7.098,5.711 7.109,5.707 7.101,5.711 7.098,5.719 7.113,5.711 7.098,5.711 7.109,5.711 7.102,5.718 7.102,5.711 7.109,5.707 7.098,5.711 7.101,5.723 7.11,5.707 7.101,5.711 7.109,5.711 7.098,5.719 7.102,5.711 7.109,5.71 7.102,5.708 7.097,5.71 7.114,5.723 7.097,5.707 7.11,5.711 7.101,5.711 7.102,5.719 7.109,5.711 7.098,5.711 7.101,5.707 7.11,5.722 7.101,5.707 7.11,5.711 7.097,5.711 7.102,5.719" /><path
       inkscape:connector-curvature="0"
       id="path62"
       style="fill:#ab3d3f;fill-opacity:0.70200004;fill-rule:nonzero;stroke:none"
       d="m 266.539,271.52 c 0,14.128 11.57,25.691 25.699,25.691 14.133,0 25.692,-11.563 25.692,-25.691 0,-14.129 -11.559,-25.692 -25.692,-25.692 -14.129,0 -25.699,11.563 -25.699,25.692" /><path
       inkscape:connector-curvature="0"
       id="path64"
       style="fill:#ab3d3f;fill-opacity:0.70200004;fill-rule:nonzero;stroke:none"
       d="m 101.57,135.23 c 0,2.93 2.391,5.321 5.309,5.321 2.93,0 5.32,-2.391 5.32,-5.321 0,-2.921 -2.39,-5.312 -5.32,-5.312 -2.918,0 -5.309,2.391 -5.309,5.312" /><path
       inkscape:connector-curvature="0"
       id="path66"
       style="fill:#ab3d3f;fill-opacity:0.70200004;fill-rule:nonzero;stroke:none"
       d="m 157.148,216.359 c 0,3.809 3.122,6.942 6.942,6.942 3.82,0 6.941,-3.133 6.941,-6.942 0,-3.82 -3.121,-6.941 -6.941,-6.941 -3.82,0 -6.942,3.121 -6.942,6.941" /><path
       inkscape:connector-curvature="0"
       id="path68"
       style="fill:#ab3d3f;fill-opacity:0.70200004;fill-rule:nonzero;stroke:none"
       d="m 240.809,232.578 c 0,21.762 17.8,39.57 39.562,39.57 21.758,0 39.57,-17.808 39.57,-39.57 0,-21.758 -17.812,-39.558 -39.57,-39.558 -21.762,0 -39.562,17.8 -39.562,39.558" /><path
       inkscape:connector-curvature="0"
       id="path70"
       style="fill:#ab3d3f;fill-opacity:0.70200004;fill-rule:nonzero;stroke:none"
       d="m 324.43,357.508 c 0,7.93 6.48,14.41 14.398,14.41 7.922,0 14.402,-6.48 14.402,-14.41 0,-7.918 -6.48,-14.399 -14.402,-14.399 -7.918,0 -14.398,6.481 -14.398,14.399" /><path
       inkscape:connector-curvature="0"
       id="path72"
       style="fill:#ab3d3f;fill-opacity:0.70200004;fill-rule:nonzero;stroke:none"
       d="m 345.43,338.039 c 0,6.289 5.148,11.441 11.441,11.441 6.289,0 11.438,-5.152 11.438,-11.441 0,-6.289 -5.149,-11.43 -11.438,-11.43 -6.293,0 -11.441,5.141 -11.441,11.43" /><path
       inkscape:connector-curvature="0"
       id="path74"
       style="fill:#666699;fill-opacity:0.70200004;fill-rule:nonzero;stroke:none"
       d="m 403.191,375.359 c 0,8.079 6.61,14.692 14.688,14.692 8.082,0 14.691,-6.613 14.691,-14.692 0,-8.082 -6.609,-14.691 -14.691,-14.691 -8.078,0 -14.688,6.609 -14.688,14.691" /><path
       inkscape:connector-curvature="0"
       id="path76"
       style="fill:#666699;fill-opacity:0.70200004;fill-rule:nonzero;stroke:none"
       d="m 609.578,604.129 c 0,9.922 8.113,18.039 18.031,18.039 9.93,0 18.039,-8.117 18.039,-18.039 0,-9.918 -8.109,-18.039 -18.039,-18.039 -9.918,0 -18.031,8.121 -18.031,18.039" /><path
       inkscape:connector-curvature="0"
       id="path78"
       style="fill:#ab3d3f;fill-opacity:0.70200004;fill-rule:nonzero;stroke:none"
       d="m 210.73,224.469 c 0,3.242 2.649,5.89 5.891,5.89 3.238,0 5.891,-2.648 5.891,-5.89 0,-3.239 -2.653,-5.891 -5.891,-5.891 -3.242,0 -5.891,2.652 -5.891,5.891" /><path
       inkscape:connector-curvature="0"
       id="path80"
       style="fill:#ab3d3f;fill-opacity:0.70200004;fill-rule:nonzero;stroke:none"
       d="m 224.59,235.828 c 0,6.231 5.109,11.34 11.34,11.34 6.242,0 11.351,-5.109 11.351,-11.34 0,-6.238 -5.109,-11.348 -11.351,-11.348 -6.231,0 -11.34,5.11 -11.34,11.348" /><path
       inkscape:connector-curvature="0"
       id="path82"
       style="fill:#666699;fill-opacity:0.70200004;fill-rule:nonzero;stroke:none"
       d="m 413.039,378.609 c 0,3.918 3.211,7.129 7.141,7.129 3.922,0 7.129,-3.211 7.129,-7.129 0,-3.929 -3.207,-7.14 -7.129,-7.14 -3.93,0 -7.141,3.211 -7.141,7.14" /><path
       inkscape:connector-curvature="0"
       id="path84"
       style="fill:#ab3d3f;fill-opacity:0.70200004;fill-rule:nonzero;stroke:none"
       d="m 229.129,217.98 c 0,10.34 8.461,18.797 18.801,18.797 10.351,0 18.808,-8.457 18.808,-18.797 0,-10.339 -8.457,-18.812 -18.808,-18.812 -10.34,0 -18.801,8.473 -18.801,18.812" /><path
       inkscape:connector-curvature="0"
       id="path86"
       style="fill:#666699;fill-opacity:0.70200004;fill-rule:nonzero;stroke:none"
       d="m 519.93,448.371 c 0,5.5 4.5,10.008 10,10.008 5.5,0 10,-4.508 10,-10.008 0,-5.5 -4.5,-10 -10,-10 -5.5,0 -10,4.5 -10,10" /><path
       inkscape:connector-curvature="0"
       id="path88"
       style="fill:#ab3d3f;fill-opacity:0.70200004;fill-rule:nonzero;stroke:none"
       d="m 177.68,213.109 c 0,3.661 3,6.661 6.66,6.661 3.66,0 6.648,-3 6.648,-6.661 0,-3.66 -2.988,-6.648 -6.648,-6.648 -3.66,0 -6.66,2.988 -6.66,6.648" /><path
       inkscape:connector-curvature="0"
       id="path90"
       style="fill:#ab3d3f;fill-opacity:0.70200004;fill-rule:nonzero;stroke:none"
       d="m 96.031,144.969 c 0,3.5 2.86,6.359 6.367,6.359 3.5,0 6.364,-2.859 6.364,-6.359 0,-3.5 -2.864,-6.371 -6.364,-6.371 -3.507,0 -6.367,2.871 -6.367,6.371" /><path
       inkscape:connector-curvature="0"
       id="path92"
       style="fill:#ab3d3f;fill-opacity:0.70200004;fill-rule:nonzero;stroke:none"
       d="m 188.738,195.258 c 0,11.613 9.492,21.101 21.102,21.101 11.601,0 21.101,-9.488 21.101,-21.101 0,-11.598 -9.5,-21.098 -21.101,-21.098 -11.61,0 -21.102,9.5 -21.102,21.098" /><path
       inkscape:connector-curvature="0"
       id="path94"
       style="fill:#ab3d3f;fill-opacity:0.70200004;fill-rule:nonzero;stroke:none"
       d="m 161.07,250.43 c 0,4.66 3.821,8.468 8.481,8.468 4.648,0 8.469,-3.808 8.469,-8.468 0,-4.66 -3.821,-8.469 -8.469,-8.469 -4.66,0 -8.481,3.809 -8.481,8.469" /><path
       inkscape:connector-curvature="0"
       id="path96"
       style="fill:#ab3d3f;fill-opacity:0.70200004;fill-rule:nonzero;stroke:none"
       d="m 235.66,274.77 c 0,7.5 6.141,13.628 13.641,13.628 7.5,0 13.64,-6.128 13.64,-13.628 0,-7.5 -6.14,-13.641 -13.64,-13.641 -7.5,0 -13.641,6.141 -13.641,13.641" /><path
       inkscape:connector-curvature="0"
       id="path98"
       style="fill:#ab3d3f;fill-opacity:0.70200004;fill-rule:nonzero;stroke:none"
       d="m 157.238,153.078 c 0,5.973 4.891,10.86 10.864,10.86 5.976,0 10.867,-4.887 10.867,-10.86 0,-5.98 -4.891,-10.859 -10.867,-10.859 -5.973,0 -10.864,4.879 -10.864,10.859" /><path
       inkscape:connector-curvature="0"
       id="path100"
       style="fill:#ab3d3f;fill-opacity:0.70200004;fill-rule:nonzero;stroke:none"
       d="m 174.469,196.891 c 0,7.129 5.832,12.968 12.972,12.968 7.129,0 12.957,-5.839 12.957,-12.968 0,-7.141 -5.828,-12.973 -12.957,-12.973 -7.14,0 -12.972,5.832 -12.972,12.973" /><path
       inkscape:connector-curvature="0"
       id="path102"
       style="fill:#666699;fill-opacity:0.70200004;fill-rule:nonzero;stroke:none"
       d="m 316.281,334.801 c 0,8.867 7.258,16.117 16.129,16.117 8.871,0 16.121,-7.25 16.121,-16.117 0,-8.871 -7.25,-16.133 -16.121,-16.133 -8.871,0 -16.129,7.262 -16.129,16.133" /><path
       inkscape:connector-curvature="0"
       id="path104"
       style="fill:#ab3d3f;fill-opacity:0.70200004;fill-rule:nonzero;stroke:none"
       d="m 122.711,164.438 c 0,3.292 2.699,5.98 5.988,5.98 3.289,0 5.981,-2.688 5.981,-5.98 0,-3.29 -2.692,-5.989 -5.981,-5.989 -3.289,0 -5.988,2.699 -5.988,5.989" /><path
       inkscape:connector-curvature="0"
       id="path106"
       style="fill:#666699;fill-opacity:0.70200004;fill-rule:nonzero;stroke:none"
       d="m 635.891,592.77 c 0,15.238 12.468,27.71 27.699,27.71 15.238,0 27.711,-12.472 27.711,-27.71 0,-15.231 -12.473,-27.7 -27.711,-27.7 -15.231,0 -27.699,12.469 -27.699,27.7" /><path
       inkscape:connector-curvature="0"
       id="path108"
       style="fill:#666699;fill-opacity:0.70200004;fill-rule:nonzero;stroke:none"
       d="m 261.609,102.777 c 0,9.871 8.071,17.953 17.942,17.953 9.871,0 17.949,-8.082 17.949,-17.953 0,-9.867 -8.078,-17.937 -17.949,-17.937 -9.871,0 -17.942,8.07 -17.942,17.937" /><path
       inkscape:connector-curvature="0"
       id="path110"
       style="fill:#ab3d3f;fill-opacity:0.70200004;fill-rule:nonzero;stroke:none"
       d="m 279.82,245.559 c 0,5.609 4.59,10.199 10.2,10.199 5.601,0 10.191,-4.59 10.191,-10.199 0,-5.61 -4.59,-10.188 -10.191,-10.188 -5.61,0 -10.2,4.578 -10.2,10.188" /><path
       inkscape:connector-curvature="0"
       id="path112"
       style="fill:#ab3d3f;fill-opacity:0.70200004;fill-rule:nonzero;stroke:none"
       d="m 333.281,308.84 c 0,29.23 23.91,53.148 53.149,53.148 29.23,0 53.148,-23.918 53.148,-53.148 0,-29.231 -23.918,-53.152 -53.148,-53.152 -29.239,0 -53.149,23.921 -53.149,53.152" /><text
       id="text114"
       style="font-variant:normal;font-weight:normal;font-size:11px;font-family:'Open Sans';-inkscape-font-specification:OpenSans;writing-mode:lr-tb;fill:#000000;fill-opacity:0.70200004;fill-rule:nonzero;stroke:none"
       transform="scale(1,-1)"
       x="284.85999"
       y="-267.59"><tspan
         id="tspan116"
         y="-267.59"
         x="284.85999">A</tspan></text>
<text
       id="text118"
       style="font-variant:normal;font-weight:normal;font-size:11px;font-family:'Open Sans';-inkscape-font-specification:OpenSans;writing-mode:lr-tb;fill:#000000;fill-opacity:0.70200004;fill-rule:nonzero;stroke:none"
       transform="scale(1,-1)"
       x="291.603"
       y="-267.59"><tspan
         id="tspan120"
         y="-267.59"
         x="291.603">G</tspan></text>
<text
       id="text122"
       style="font-variant:normal;font-weight:normal;font-size:11px;font-family:'Open Sans';-inkscape-font-specification:OpenSans;writing-mode:lr-tb;fill:#000000;fill-opacity:0.70200004;fill-rule:nonzero;stroke:none"
       transform="scale(1,-1)"
       x="101.87"
       y="-131.31"><tspan
         id="tspan124"
         y="-131.31"
         x="101.87">A</tspan></text>
<text
       id="text126"
       style="font-variant:normal;font-weight:normal;font-size:11px;font-family:'Open Sans';-inkscape-font-specification:OpenSans;writing-mode:lr-tb;fill:#000000;fill-opacity:0.70200004;fill-rule:nonzero;stroke:none"
       transform="scale(1,-1)"
       x="108.833"
       y="-131.31"><tspan
         id="tspan128"
         y="-131.31"
         x="108.833">I</tspan></text>
<text
       id="text130"
       style="font-variant:normal;font-weight:normal;font-size:11px;font-family:'Open Sans';-inkscape-font-specification:OpenSans;writing-mode:lr-tb;fill:#000000;fill-opacity:0.70200004;fill-rule:nonzero;stroke:none"
       transform="scale(1,-1)"
       x="157.21001"
       y="-212.42999"><tspan
         id="tspan132"
         y="-212.42999"
         x="157.21001">A</tspan></text>
<text
       id="text134"
       style="font-variant:normal;font-weight:normal;font-size:11px;font-family:'Open Sans';-inkscape-font-specification:OpenSans;writing-mode:lr-tb;fill:#000000;fill-opacity:0.70200004;fill-rule:nonzero;stroke:none"
       transform="scale(1,-1)"
       x="164.173"
       y="-212.42999"><tspan
         id="tspan136"
         y="-212.42999"
         x="164.173">R</tspan></text>
<text
       id="text138"
       style="font-variant:normal;font-weight:normal;font-size:11px;font-family:'Open Sans';-inkscape-font-specification:OpenSans;writing-mode:lr-tb;fill:#000000;fill-opacity:0.70200004;fill-rule:nonzero;stroke:none"
       transform="scale(1,-1)"
       x="273.75"
       y="-228.64999"><tspan
         id="tspan140"
         y="-228.64999"
         x="273.75">B</tspan></text>
<text
       id="text142"
       style="font-variant:normal;font-weight:normal;font-size:11px;font-family:'Open Sans';-inkscape-font-specification:OpenSans;writing-mode:lr-tb;fill:#000000;fill-opacity:0.70200004;fill-rule:nonzero;stroke:none"
       transform="scale(1,-1)"
       x="280.87799"
       y="-228.64999"><tspan
         id="tspan144"
         y="-228.64999"
         x="280.87799">E</tspan></text>
<text
       id="text146"
       style="font-variant:normal;font-weight:normal;font-size:11px;font-family:'Open Sans';-inkscape-font-specification:OpenSans;writing-mode:lr-tb;fill:#000000;fill-opacity:0.70200004;fill-rule:nonzero;stroke:none"
       transform="scale(1,-1)"
       x="332.41"
       y="-353.59"><tspan
         id="tspan148"
         y="-353.59"
         x="332.41">B</tspan></text>
<text
       id="text150"
       style="font-variant:normal;font-weight:normal;font-size:11px;font-family:'Open Sans';-inkscape-font-specification:OpenSans;writing-mode:lr-tb;fill:#000000;fill-opacity:0.70200004;fill-rule:nonzero;stroke:none"
       transform="scale(1,-1)"
       x="339.53799"
       y="-353.59"><tspan
         id="tspan152"
         y="-353.59"
         x="339.53799">L</tspan></text>
<text
       id="text154"
       style="font-variant:normal;font-weight:normal;font-size:11px;font-family:'Open Sans';-inkscape-font-specification:OpenSans;writing-mode:lr-tb;fill:#000000;fill-opacity:0.70200004;fill-rule:nonzero;stroke:none"
       transform="scale(1,-1)"
       x="350.29001"
       y="-334.12"><tspan
         id="tspan156"
         y="-334.12"
         x="350.29001">B</tspan></text>
<text
       id="text158"
       style="font-variant:normal;font-weight:normal;font-size:11px;font-family:'Open Sans';-inkscape-font-specification:OpenSans;writing-mode:lr-tb;fill:#000000;fill-opacity:0.70200004;fill-rule:nonzero;stroke:none"
       transform="scale(1,-1)"
       x="357.418"
       y="-334.12"><tspan
         id="tspan160"
         y="-334.12"
         x="357.418">S</tspan></text>
<text
       id="text162"
       style="font-variant:normal;font-weight:normal;font-size:11px;font-family:'Open Sans';-inkscape-font-specification:OpenSans;writing-mode:lr-tb;fill:#000000;fill-opacity:0.70200004;fill-rule:nonzero;stroke:none"
       transform="scale(1,-1)"
       x="410.04001"
       y="-366.62997"><tspan
         id="tspan164"
         y="-366.62997"
         x="410.04001">F</tspan></text>
<text
       id="text166"
       style="font-variant:normal;font-weight:normal;font-size:11px;font-family:'Open Sans';-inkscape-font-specification:OpenSans;writing-mode:lr-tb;fill:#000000;fill-opacity:0.70200004;fill-rule:nonzero;stroke:none"
       transform="scale(1,-1)"
       x="417.31601"
       y="-366.62997"><tspan
         id="tspan168"
         y="-366.62997"
         x="417.31601">R</tspan></text>
<text
       id="text170"
       style="font-variant:normal;font-weight:normal;font-size:11px;font-family:'Open Sans';-inkscape-font-specification:OpenSans;writing-mode:lr-tb;fill:#000000;fill-opacity:0.70200004;fill-rule:nonzero;stroke:none"
       transform="scale(1,-1)"
       x="620.54999"
       y="-600.20001"><tspan
         id="tspan172"
         y="-600.20001"
         x="620.54999">G</tspan></text>
<text
       id="text174"
       style="font-variant:normal;font-weight:normal;font-size:11px;font-family:'Open Sans';-inkscape-font-specification:OpenSans;writing-mode:lr-tb;fill:#000000;fill-opacity:0.70200004;fill-rule:nonzero;stroke:none"
       transform="scale(1,-1)"
       x="628.55798"
       y="-600.20001"><tspan
         id="tspan176"
         y="-600.20001"
         x="628.55798">E</tspan></text>
<text
       id="text178"
       style="font-variant:normal;font-weight:normal;font-size:11px;font-family:'Open Sans';-inkscape-font-specification:OpenSans;writing-mode:lr-tb;fill:#000000;fill-opacity:0.70200004;fill-rule:nonzero;stroke:none"
       transform="scale(1,-1)"
       x="209.75999"
       y="-220.53999"><tspan
         id="tspan180"
         y="-220.53999"
         x="209.75999">G</tspan></text>
<text
       id="text182"
       style="font-variant:normal;font-weight:normal;font-size:11px;font-family:'Open Sans';-inkscape-font-specification:OpenSans;writing-mode:lr-tb;fill:#000000;fill-opacity:0.70200004;fill-rule:nonzero;stroke:none"
       transform="scale(1,-1)"
       x="217.76801"
       y="-220.53999"><tspan
         id="tspan184"
         y="-220.53999"
         x="217.76801">L</tspan></text>
<text
       id="text186"
       style="font-variant:normal;font-weight:normal;font-size:11px;font-family:'Open Sans';-inkscape-font-specification:OpenSans;writing-mode:lr-tb;fill:#000000;fill-opacity:0.70200004;fill-rule:nonzero;stroke:none"
       transform="scale(1,-1)"
       x="228.53"
       y="-231.89999"><tspan
         id="tspan188"
         y="-231.89999"
         x="228.53">G</tspan></text>
<text
       id="text190"
       style="font-variant:normal;font-weight:normal;font-size:11px;font-family:'Open Sans';-inkscape-font-specification:OpenSans;writing-mode:lr-tb;fill:#000000;fill-opacity:0.70200004;fill-rule:nonzero;stroke:none"
       transform="scale(1,-1)"
       x="236.53799"
       y="-231.89999"><tspan
         id="tspan192"
         y="-231.89999"
         x="236.53799">R</tspan></text>
<text
       id="text198"
       style="font-variant:normal;font-weight:normal;font-size:11px;line-height:125%;font-family:'Open Sans';-inkscape-font-specification:OpenSans;text-align:start;writing-mode:lr-tb;text-anchor:start;fill:#000000;fill-opacity:0.70200004;fill-rule:nonzero;stroke:none"
       transform="scale(1,-1)"
       x="416.0174"
       y="-378.26636"
       sodipodi:linespacing="125%"><tspan
         sodipodi:role="line"
         id="tspan3573"
         x="416.0174"
         y="-378.26636">JU</tspan></text>
<text
       id="text202"
       style="font-variant:normal;font-weight:normal;font-size:11px;font-family:'Open Sans';-inkscape-font-specification:OpenSans;writing-mode:lr-tb;fill:#000000;fill-opacity:0.70200004;fill-rule:nonzero;stroke:none"
       transform="scale(1,-1)"
       x="241.13"
       y="-214.05"><tspan
         id="tspan204"
         y="-214.05"
         x="241.13">L</tspan></text>
<text
       id="text206"
       style="font-variant:normal;font-weight:normal;font-size:11px;font-family:'Open Sans';-inkscape-font-specification:OpenSans;writing-mode:lr-tb;fill:#000000;fill-opacity:0.70200004;fill-rule:nonzero;stroke:none"
       transform="scale(1,-1)"
       x="246.729"
       y="-214.05"><tspan
         id="tspan208"
         y="-214.05"
         x="246.729">U</tspan></text>
<text
       id="text210"
       style="font-variant:normal;font-weight:normal;font-size:11px;font-family:'Open Sans';-inkscape-font-specification:OpenSans;writing-mode:lr-tb;fill:#000000;fill-opacity:0.70200004;fill-rule:nonzero;stroke:none"
       transform="scale(1,-1)"
       x="522.71997"
       y="-444.45001"><tspan
         id="tspan212"
         y="-444.45001"
         x="522.71997">N</tspan></text>
<text
       id="text214"
       style="font-variant:normal;font-weight:normal;font-size:11px;font-family:'Open Sans';-inkscape-font-specification:OpenSans;writing-mode:lr-tb;fill:#000000;fill-opacity:0.70200004;fill-rule:nonzero;stroke:none"
       transform="scale(1,-1)"
       x="531.01398"
       y="-444.45001"><tspan
         id="tspan216"
         y="-444.45001"
         x="531.01398">E</tspan></text>
<text
       id="text218"
       style="font-variant:normal;font-weight:normal;font-size:11px;font-family:'Open Sans';-inkscape-font-specification:OpenSans;writing-mode:lr-tb;fill:#000000;fill-opacity:0.70200004;fill-rule:nonzero;stroke:none"
       transform="scale(1,-1)"
       x="175.10001"
       y="-209.17999"><tspan
         id="tspan220"
         y="-209.17999"
         x="175.10001">N</tspan></text>
<text
       id="text222"
       style="font-variant:normal;font-weight:normal;font-size:11px;font-family:'Open Sans';-inkscape-font-specification:OpenSans;writing-mode:lr-tb;fill:#000000;fill-opacity:0.70200004;fill-rule:nonzero;stroke:none"
       transform="scale(1,-1)"
       x="183.394"
       y="-209.17999"><tspan
         id="tspan224"
         y="-209.17999"
         x="183.394">W</tspan></text>
<text
       id="text226"
       style="font-variant:normal;font-weight:normal;font-size:11px;font-family:'Open Sans';-inkscape-font-specification:OpenSans;writing-mode:lr-tb;fill:#000000;fill-opacity:0.70200004;fill-rule:nonzero;stroke:none"
       transform="scale(1,-1)"
       x="93.07"
       y="-141.03999"><tspan
         id="tspan228"
         y="-141.03999"
         x="93.07">O</tspan></text>
<text
       id="text230"
       style="font-variant:normal;font-weight:normal;font-size:11px;font-family:'Open Sans';-inkscape-font-specification:OpenSans;writing-mode:lr-tb;fill:#000000;fill-opacity:0.70200004;fill-rule:nonzero;stroke:none"
       transform="scale(1,-1)"
       x="101.529"
       y="-141.03999"><tspan
         id="tspan232"
         y="-141.03999"
         x="101.529">W</tspan></text>
<text
       id="text234"
       style="font-variant:normal;font-weight:normal;font-size:11px;font-family:'Open Sans';-inkscape-font-specification:OpenSans;writing-mode:lr-tb;fill:#000000;fill-opacity:0.70200004;fill-rule:nonzero;stroke:none"
       transform="scale(1,-1)"
       x="202.82001"
       y="-191.34"><tspan
         id="tspan236"
         y="-191.34"
         x="202.82001">S</tspan></text>
<text
       id="text238"
       style="font-variant:normal;font-weight:normal;font-size:11px;font-family:'Open Sans';-inkscape-font-specification:OpenSans;writing-mode:lr-tb;fill:#000000;fill-opacity:0.70200004;fill-rule:nonzero;stroke:none"
       transform="scale(1,-1)"
       x="208.85899"
       y="-191.34"><tspan
         id="tspan240"
         y="-191.34"
         x="208.85899">G</tspan></text>
<text
       id="text242"
       style="font-variant:normal;font-weight:normal;font-size:11px;font-family:'Open Sans';-inkscape-font-specification:OpenSans;writing-mode:lr-tb;fill:#000000;fill-opacity:0.70200004;fill-rule:nonzero;stroke:none"
       transform="scale(1,-1)"
       x="162.47"
       y="-246.5"><tspan
         id="tspan244"
         y="-246.5"
         x="162.47">S</tspan></text>
<text
       id="text246"
       style="font-variant:normal;font-weight:normal;font-size:11px;font-family:'Open Sans';-inkscape-font-specification:OpenSans;writing-mode:lr-tb;fill:#000000;fill-opacity:0.70200004;fill-rule:nonzero;stroke:none"
       transform="scale(1,-1)"
       x="168.509"
       y="-246.5"><tspan
         id="tspan248"
         y="-246.5"
         x="168.509">H</tspan></text>
<text
       id="text250"
       style="font-variant:normal;font-weight:normal;font-size:11px;font-family:'Open Sans';-inkscape-font-specification:OpenSans;writing-mode:lr-tb;fill:#000000;fill-opacity:0.70200004;fill-rule:nonzero;stroke:none"
       transform="scale(1,-1)"
       x="242"
       y="-270.84"><tspan
         id="tspan252"
         y="-270.84"
         x="242">S</tspan></text>
<text
       id="text254"
       style="font-variant:normal;font-weight:normal;font-size:11px;font-family:'Open Sans';-inkscape-font-specification:OpenSans;writing-mode:lr-tb;fill:#000000;fill-opacity:0.70200004;fill-rule:nonzero;stroke:none"
       transform="scale(1,-1)"
       x="248.039"
       y="-270.84"><tspan
         id="tspan256"
         y="-270.84"
         x="248.039">O</tspan></text>
<text
       id="text258"
       style="font-variant:normal;font-weight:normal;font-size:11px;font-family:'Open Sans';-inkscape-font-specification:OpenSans;writing-mode:lr-tb;fill:#000000;fill-opacity:0.70200004;fill-rule:nonzero;stroke:none"
       transform="scale(1,-1)"
       x="161.94"
       y="-149.14999"><tspan
         id="tspan260"
         y="-149.14999"
         x="161.94">S</tspan></text>
<text
       id="text262"
       style="font-variant:normal;font-weight:normal;font-size:11px;font-family:'Open Sans';-inkscape-font-specification:OpenSans;writing-mode:lr-tb;fill:#000000;fill-opacity:0.70200004;fill-rule:nonzero;stroke:none"
       transform="scale(1,-1)"
       x="167.979"
       y="-149.14999"><tspan
         id="tspan264"
         y="-149.14999"
         x="167.979">Z</tspan></text>
<text
       id="text266"
       style="font-variant:normal;font-weight:normal;font-size:11px;font-family:'Open Sans';-inkscape-font-specification:OpenSans;writing-mode:lr-tb;fill:#000000;fill-opacity:0.70200004;fill-rule:nonzero;stroke:none"
       transform="scale(1,-1)"
       x="180.5"
       y="-192.96001"><tspan
         id="tspan268"
         y="-192.96001"
         x="180.5">T</tspan></text>
<text
       id="text270"
       style="font-variant:normal;font-weight:normal;font-size:11px;font-family:'Open Sans';-inkscape-font-specification:OpenSans;writing-mode:lr-tb;fill:#000000;fill-opacity:0.70200004;fill-rule:nonzero;stroke:none"
       transform="scale(1,-1)"
       x="186.36301"
       y="-192.96001"><tspan
         id="tspan272"
         y="-192.96001"
         x="186.36301">G</tspan></text>
<text
       id="text274"
       style="font-variant:normal;font-weight:normal;font-size:11px;font-family:'Open Sans';-inkscape-font-specification:OpenSans;writing-mode:lr-tb;fill:#000000;fill-opacity:0.70200004;fill-rule:nonzero;stroke:none"
       transform="scale(1,-1)"
       x="327.82999"
       y="-330.87"><tspan
         id="tspan276"
         y="-330.87"
         x="327.82999">T</tspan></text>
<text
       id="text278"
       style="font-variant:normal;font-weight:normal;font-size:11px;font-family:'Open Sans';-inkscape-font-specification:OpenSans;writing-mode:lr-tb;fill:#000000;fill-opacity:0.70200004;fill-rule:nonzero;stroke:none"
       transform="scale(1,-1)"
       x="333.91299"
       y="-330.87"><tspan
         id="tspan280"
         y="-330.87"
         x="333.91299">I</tspan></text>
<text
       id="text282"
       style="font-variant:normal;font-weight:normal;font-size:11px;font-family:'Open Sans';-inkscape-font-specification:OpenSans;writing-mode:lr-tb;fill:#000000;fill-opacity:0.70200004;fill-rule:nonzero;stroke:none"
       transform="scale(1,-1)"
       x="121.29"
       y="-160.50999"><tspan
         id="tspan284"
         y="-160.50999"
         x="121.29">U</tspan></text>
<text
       id="text286"
       style="font-variant:normal;font-weight:normal;font-size:11px;font-family:'Open Sans';-inkscape-font-specification:OpenSans;writing-mode:lr-tb;fill:#000000;fill-opacity:0.70200004;fill-rule:nonzero;stroke:none"
       transform="scale(1,-1)"
       x="129.298"
       y="-160.50999"><tspan
         id="tspan288"
         y="-160.50999"
         x="129.298">R</tspan></text>
<text
       id="text290"
       style="font-variant:normal;font-weight:normal;font-size:11px;font-family:'Open Sans';-inkscape-font-specification:OpenSans;writing-mode:lr-tb;fill:#000000;fill-opacity:0.70200004;fill-rule:nonzero;stroke:none"
       transform="scale(1,-1)"
       x="656.31"
       y="-588.84998"><tspan
         id="tspan292"
         y="-588.84998"
         x="656.31">V</tspan></text>
<text
       id="text294"
       style="font-variant:normal;font-weight:normal;font-size:11px;font-family:'Open Sans';-inkscape-font-specification:OpenSans;writing-mode:lr-tb;fill:#000000;fill-opacity:0.70200004;fill-rule:nonzero;stroke:none"
       transform="scale(1,-1)"
       x="662.85498"
       y="-588.84998"><tspan
         id="tspan296"
         y="-588.84998"
         x="662.85498">D</tspan></text>
<text
       id="text298"
       style="font-variant:normal;font-weight:normal;font-size:11px;font-family:'Open Sans';-inkscape-font-specification:OpenSans;writing-mode:lr-tb;fill:#000000;fill-opacity:0.70200004;fill-rule:nonzero;stroke:none"
       transform="scale(1,-1)"
       x="273.26001"
       y="-98.860001"><tspan
         id="tspan300"
         y="-98.860001"
         x="273.26001">V</tspan></text>
<text
       id="text302"
       style="font-variant:normal;font-weight:normal;font-size:11px;font-family:'Open Sans';-inkscape-font-specification:OpenSans;writing-mode:lr-tb;fill:#000000;fill-opacity:0.70200004;fill-rule:nonzero;stroke:none"
       transform="scale(1,-1)"
       x="279.80499"
       y="-98.860001"><tspan
         id="tspan304"
         y="-98.860001"
         x="279.80499">S</tspan></text>
<text
       id="text306"
       style="font-variant:normal;font-weight:normal;font-size:11px;font-family:'Open Sans';-inkscape-font-specification:OpenSans;writing-mode:lr-tb;fill:#000000;fill-opacity:0.70200004;fill-rule:nonzero;stroke:none"
       transform="scale(1,-1)"
       x="282.92999"
       y="-241.63"><tspan
         id="tspan308"
         y="-241.63"
         x="282.92999">Z</tspan></text>
<text
       id="text310"
       style="font-variant:normal;font-weight:normal;font-size:11px;font-family:'Open Sans';-inkscape-font-specification:OpenSans;writing-mode:lr-tb;fill:#000000;fill-opacity:0.70200004;fill-rule:nonzero;stroke:none"
       transform="scale(1,-1)"
       x="289.10101"
       y="-241.63"><tspan
         id="tspan312"
         y="-241.63"
         x="289.10101">G</tspan></text>
<text
       id="text314"
       style="font-variant:normal;font-weight:normal;font-size:11px;font-family:'Open Sans';-inkscape-font-specification:OpenSans;writing-mode:lr-tb;fill:#000000;fill-opacity:0.70200004;fill-rule:nonzero;stroke:none"
       transform="scale(1,-1)"
       x="379.23001"
       y="-304.91"><tspan
         id="tspan316"
         y="-304.91"
         x="379.23001">Z</tspan></text>
<text
       id="text318"
       style="font-variant:normal;font-weight:normal;font-size:11px;font-family:'Open Sans';-inkscape-font-specification:OpenSans;writing-mode:lr-tb;fill:#000000;fill-opacity:0.70200004;fill-rule:nonzero;stroke:none"
       transform="scale(1,-1)"
       x="385.51099"
       y="-304.91"><tspan
         id="tspan320"
         y="-304.91"
         x="385.51099">H</tspan></text>
<text
       id="text324"
       style="font-variant:normal;font-weight:normal;font-size:14px;font-family:'Open Sans';-inkscape-font-specification:OpenSans;writing-mode:lr-tb;fill:#000000;fill-opacity:1;fill-rule:nonzero;stroke:none"
       transform="scale(1,-1)"
       x="48.400002"
       y="-199.99997"><tspan
         id="tspan326"
         sodipodi:role="line"
         y="-199.99997"
         x="48.400002 56.394001">60</tspan><tspan
         id="tspan328"
         sodipodi:role="line"
         y="-362.24997"
         x="48.400002 56.394001">70</tspan><tspan
         id="tspan330"
         sodipodi:role="line"
         y="-524.50012"
         x="48.400002 56.394001">80</tspan></text>
<path
       inkscape:connector-curvature="0"
       id="path332"
       style="fill:none;stroke:#7e8279;stroke-width:1.90999997;stroke-linecap:round;stroke-linejoin:round;stroke-miterlimit:10;stroke-dasharray:none;stroke-opacity:1"
       d="m 74.34,77.711 617.308,0" /><path
       inkscape:connector-curvature="0"
       id="path334"
       style="fill:none;stroke:#7e8279;stroke-width:0.63999999;stroke-linecap:butt;stroke-linejoin:round;stroke-miterlimit:10;stroke-dasharray:none;stroke-opacity:1"
       d="m 182.469,70.629 0,7.082" /><path
       inkscape:connector-curvature="0"
       id="path336"
       style="fill:none;stroke:#7e8279;stroke-width:0.63999999;stroke-linecap:butt;stroke-linejoin:round;stroke-miterlimit:10;stroke-dasharray:none;stroke-opacity:1"
       d="m 320.551,70.629 0,7.082" /><path
       inkscape:connector-curvature="0"
       id="path338"
       style="fill:none;stroke:#7e8279;stroke-width:0.63999999;stroke-linecap:butt;stroke-linejoin:round;stroke-miterlimit:10;stroke-dasharray:none;stroke-opacity:1"
       d="m 458.629,70.629 0,7.082" /><path
       inkscape:connector-curvature="0"
       id="path340"
       style="fill:none;stroke:#7e8279;stroke-width:0.63999999;stroke-linecap:butt;stroke-linejoin:round;stroke-miterlimit:10;stroke-dasharray:none;stroke-opacity:1"
       d="m 596.711,70.629 0,7.082" /><text
       id="text342"
       style="font-variant:normal;font-weight:normal;font-size:14px;font-family:'Open Sans';-inkscape-font-specification:OpenSans;writing-mode:lr-tb;fill:#000000;fill-opacity:1;fill-rule:nonzero;stroke:none"
       transform="scale(1,-1)"
       x="174.46001"
       y="-57.800011"><tspan
         id="tspan344"
         sodipodi:role="line"
         y="-57.800011"
         x="174.46001 182.45401 312.48602 320.48001 450.62 458.61401 588.646 596.64001">50607080</tspan></text>
<text
       id="text346"
       style="font-variant:normal;font-weight:600;font-size:18px;font-family:'Open Sans Semibold';-inkscape-font-specification:OpenSans-Semibold;writing-mode:lr-tb;fill:#7e8279;fill-opacity:1;fill-rule:nonzero;stroke:none"
       transform="scale(1,-1)"
       x="323.30777"
       y="-35.765862"><tspan
         id="tspan348"
         sodipodi:role="line"
         x="323.30777"
         y="-35.765862">% ‘sì’ alla diagnosi preimpianto (14.06.2015)</tspan></text>
<text
       id="text350"
       style="font-variant:normal;font-weight:600;font-size:18px;line-height:125%;font-family:'Open Sans Semibold';-inkscape-font-specification:OpenSans-Semibold;writing-mode:lr-tb;fill:#7e8279;fill-opacity:1;fill-rule:nonzero;stroke:none"
       transform="matrix(0,1,1,0,0,0)"
       x="100.91249"
       y="36.400005"
       sodipodi:linespacing="125%"><tspan
         sodipodi:role="line"
         id="tspan3589"
         x="100.91249"
         y="36.400005">% di ‘sì’ alla ricerca sulle cellule staminali (28.11.2004)</tspan></text>
<text
       id="text494"
       style="font-variant:normal;font-weight:600;font-size:24px;font-family:'Open Sans Semibold';-inkscape-font-specification:OpenSans-Semibold;writing-mode:lr-tb;fill:#000000;fill-opacity:1;fill-rule:nonzero;stroke:none"
       transform="scale(1,-1)"
       x="36.678844"
       y="-693.26123"><tspan
         id="tspan498"
         sodipodi:role="line"
         x="36.678844"
         y="-693.26123">Votazioni sulla diagnosi preimpianto e la ricerca sulle </tspan><tspan
         sodipodi:role="line"
         x="36.678844"
         y="-663.26123"
         id="tspan3574">cellule staminali</tspan></text>
<text
       id="text500"
       style="font-variant:normal;font-weight:normal;font-size:16px;font-family:'Open Sans';-inkscape-font-specification:OpenSans;writing-mode:lr-tb;fill:#000000;fill-opacity:1;fill-rule:nonzero;stroke:none"
       transform="scale(1,-1)"
       x="34.83654"
       y="-638.47058"><tspan
         id="tspan504"
         sodipodi:role="line"
         x="34.83654"
         y="-638.47058">Oltre 10 anni dopo, i cantoni più favorevoli alle ricerche sugli embrioni restano gli stessi.</tspan></text>
<text
       id="text506"
       style="font-variant:normal;font-weight:normal;font-size:13px;font-family:'Open Sans';-inkscape-font-specification:OpenSans;writing-mode:lr-tb;fill:#b3b3b3;fill-opacity:1;fill-rule:nonzero;stroke:none"
       transform="scale(1,-1)"
       x="684.3833"
       y="-535.25842"><tspan
         id="tspan514"
         sodipodi:role="line"
         x="687.76025"
         y="-535.25842"
         style="text-align:end;text-anchor:end">La dimensione dei cerchi è proporzionale al numero totale di schede </tspan><tspan
         sodipodi:role="line"
         x="684.3833"
         y="-519.00842"
         id="tspan3587"
         style="text-align:end;text-anchor:end">depositate in ogni cantone sul nuovo articolo costituzionale.</tspan><tspan
         sodipodi:role="line"
         x="687.76025"
         y="-502.75842"
         id="tspan3583"
         style="text-align:end;text-anchor:end" /><tspan
         sodipodi:role="line"
         x="684.3833"
         y="-486.50842"
         id="tspan3585"
         style="text-align:end;text-anchor:end">I cantoni latini sono rappresentati in blu.</tspan></text>
<text
       xml:space="preserve"
       style="font-style:normal;font-variant:normal;font-weight:normal;font-stretch:normal;font-size:9px;line-height:125%;font-family:'Open Sans';-inkscape-font-specification:'Open Sans';text-align:start;letter-spacing:0px;word-spacing:0px;writing-mode:lr-tb;text-anchor:start;fill:#000000;fill-opacity:1;stroke:none;stroke-width:1px;stroke-linecap:butt;stroke-linejoin:miter;stroke-opacity:1"
       x="562.04181"
       y="-10.437793"
       id="text3570"
       sodipodi:linespacing="125%"
       transform="scale(1,-1)"><tspan
         sodipodi:role="line"
         id="tspan3572"
         x="562.04181"
         y="-10.437793"
         style="font-style:italic;font-variant:normal;font-weight:300;font-stretch:normal;font-family:'Open Sans';-inkscape-font-specification:'Open Sans Light Italic'">Fonte: Ufficio federale di statistica</tspan></text>
</g></svg>