<?xml version="1.0" encoding="UTF-8" standalone="no"?>
<!-- Created with Inkscape (http://www.inkscape.org/) -->

<svg
   xmlns:dc="http://purl.org/dc/elements/1.1/"
   xmlns:cc="http://creativecommons.org/ns#"
   xmlns:rdf="http://www.w3.org/1999/02/22-rdf-syntax-ns#"
   xmlns:svg="http://www.w3.org/2000/svg"
   xmlns="http://www.w3.org/2000/svg"
   xmlns:sodipodi="http://sodipodi.sourceforge.net/DTD/sodipodi-0.dtd"
   xmlns:inkscape="http://www.inkscape.org/namespaces/inkscape"
   id="svg2"
   version="1.1"
   inkscape:version="0.48.2 r9819"
   width="900"
   height="900"
   xml:space="preserve"
   sodipodi:docname="popInit_scatter.svg"
   inkscape:export-filename="/Users/nguyendu/Google Drive/swissinfo/2014_11_04_ballotCorrelation/prod/popInit_scatter.png"
   inkscape:export-xdpi="158.27"
   inkscape:export-ydpi="158.27"><metadata
     id="metadata8"><rdf:RDF><cc:Work
         rdf:about=""><dc:format>image/svg+xml</dc:format><dc:type
           rdf:resource="http://purl.org/dc/dcmitype/StillImage" /><dc:title /></cc:Work></rdf:RDF></metadata><defs
     id="defs6"><clipPath
       clipPathUnits="userSpaceOnUse"
       id="clipPath18"><path
         d="m 74.34,88.91 617.32,0 0,551.48 -617.32,0 0,-551.48 z"
         id="path20" /></clipPath><clipPath
       clipPathUnits="userSpaceOnUse"
       id="clipPath190"><path
         d="M 0,0 720,0 720,720 0,720 0,0 z"
         id="path192" /></clipPath></defs><sodipodi:namedview
     pagecolor="#ffffff"
     bordercolor="#666666"
     borderopacity="1"
     objecttolerance="10"
     gridtolerance="10"
     guidetolerance="10"
     inkscape:pageopacity="0"
     inkscape:pageshadow="2"
     inkscape:window-width="2560"
     inkscape:window-height="1418"
     id="namedview4"
     showgrid="false"
     inkscape:zoom="1.8309176"
     inkscape:cx="440.35661"
     inkscape:cy="615.56061"
     inkscape:window-x="1280"
     inkscape:window-y="0"
     inkscape:window-maximized="1"
     inkscape:current-layer="g10" /><g
     id="g10"
     inkscape:groupmode="layer"
     inkscape:label="popInit_scatter"
     transform="matrix(1.25,0,0,-1.25,0,900)"><g
   id="g12" /><path
   d="m 74.34,164.1 617.31,0"
   style="fill:none;stroke:#d3d3d3;stroke-width:0.11;stroke-linecap:round;stroke-linejoin:round;stroke-miterlimit:10;stroke-opacity:1;stroke-dasharray:none"
   id="path22"
   inkscape:connector-curvature="0" /><path
   d="m 74.34,324.11 617.31,0"
   style="fill:none;stroke:#000000;stroke-width:0.31999998;stroke-linecap:round;stroke-linejoin:round;stroke-miterlimit:10;stroke-opacity:1;stroke-dasharray:none;stroke-dashoffset:0.03200000000000000;opacity:0.85344827999999984"
   id="path24"
   inkscape:connector-curvature="0" /><path
   d="m 74.34,484.12 617.31,0"
   style="fill:none;stroke:#d3d3d3;stroke-width:0.11;stroke-linecap:round;stroke-linejoin:round;stroke-miterlimit:10;stroke-opacity:1;stroke-dasharray:none"
   id="path26"
   inkscape:connector-curvature="0" /><path
   d="m 102.4,113.98 7.1,6.16 7.1,6.15 7.11,6.15 7.1,6.16 7.1,6.15 7.11,6.15 7.1,6.15 7.11,6.16 7.1,6.15 7.1,6.15 7.11,6.16 7.1,6.15 7.1,6.15 7.11,6.16 7.1,6.15 7.11,6.15 7.1,6.16 7.1,6.15 7.11,6.15 7.1,6.16 7.1,6.15 7.11,6.15 7.1,6.16 7.11,6.15 7.1,6.15 7.1,6.16 7.11,6.15 7.1,6.15 7.11,6.16 7.1,6.15 7.1,6.15 7.11,6.16 7.1,6.15 7.1,6.15 7.11,6.15 7.1,6.16 7.11,6.15 7.1,6.15 7.1,6.16 7.11,6.15 7.1,6.15 7.1,6.16 7.11,6.15 7.1,6.15 7.11,6.16 7.1,6.15 7.1,6.15 7.11,6.16 7.1,6.15 7.1,6.15 7.11,6.16 7.1,6.15 7.11,6.15 7.1,6.16 7.1,6.15 7.11,6.15 7.1,6.16 7.1,6.15 7.11,6.15 7.1,6.16 7.11,6.15 7.1,6.15 7.1,6.15 7.11,6.16 7.1,6.15 7.1,6.15 7.11,6.16 7.1,6.15 7.11,6.15 7.1,6.16 7.1,6.15 7.11,6.15 7.1,6.16 7.1,6.15 7.11,6.15 7.1,6.16 7.11,6.15 7.1,6.15 7.1,6.16"
   style="fill:none;stroke:#663333;stroke-width:1.05999994;stroke-linecap:butt;stroke-linejoin:round;stroke-miterlimit:1;stroke-opacity:1;stroke-dasharray:1.06, 3.19;stroke-dashoffset:0"
   id="path28"
   inkscape:connector-curvature="0" /><path
   d="m 424.55,407.32 c 0,13.92 11.39,25.31 25.31,25.31 13.92,0 25.31,-11.39 25.31,-25.31 0,-13.92 -11.39,-25.31 -25.31,-25.31 -13.92,0 -25.31,11.39 -25.31,25.31"
   style="fill:#ab3d3f;fill-opacity:0.70200004;fill-rule:nonzero;stroke:none"
   id="path30"
   inkscape:connector-curvature="0" /><path
   d="m 483.05,540.13 c 0,2.92 2.39,5.31 5.32,5.31 2.92,0 5.31,-2.39 5.31,-5.31 0,-2.93 -2.39,-5.32 -5.31,-5.32 -2.93,0 -5.32,2.39 -5.32,5.32"
   style="fill:#ab3d3f;fill-opacity:0.70200004;fill-rule:nonzero;stroke:none"
   id="path32"
   inkscape:connector-curvature="0" /><path
   d="m 459.31,394.52 c 0,3.71 3.04,6.75 6.75,6.75 3.71,0 6.75,-3.04 6.75,-6.75 0,-3.72 -3.04,-6.75 -6.75,-6.75 -3.71,0 -6.75,3.03 -6.75,6.75"
   style="fill:#ab3d3f;fill-opacity:0.70200004;fill-rule:nonzero;stroke:none"
   id="path34"
   inkscape:connector-curvature="0" /><path
   d="m 285.55,341.71 c 0,21.82 17.85,39.66 39.66,39.66 21.81,0 39.66,-17.84 39.66,-39.66 0,-21.81 -17.85,-39.66 -39.66,-39.66 -21.81,0 -39.66,17.85 -39.66,39.66"
   style="fill:#ab3d3f;fill-opacity:0.70200004;fill-rule:nonzero;stroke:none"
   id="path36"
   inkscape:connector-curvature="0" /><path
   d="m 337.66,333.71 c 0,7.82 6.39,14.21 14.21,14.21 7.82,0 14.21,-6.39 14.21,-14.21 0,-7.81 -6.39,-14.21 -14.21,-14.21 -7.82,0 -14.21,6.4 -14.21,14.21"
   style="fill:#ab3d3f;fill-opacity:0.70200004;fill-rule:nonzero;stroke:none"
   id="path38"
   inkscape:connector-curvature="0" /><path
   d="m 276.34,148.1 c 0,6.08 4.98,11.06 11.06,11.06 6.08,0 11.05,-4.98 11.05,-11.06 0,-6.08 -4.97,-11.05 -11.05,-11.05 -6.08,0 -11.06,4.97 -11.06,11.05"
   style="fill:#ab3d3f;fill-opacity:0.70200004;fill-rule:nonzero;stroke:none"
   id="path40"
   inkscape:connector-curvature="0" /><path
   d="m 322.06,300.11 c 0,7.76 6.35,14.12 14.12,14.12 7.76,0 14.11,-6.36 14.11,-14.12 0,-7.76 -6.35,-14.12 -14.11,-14.12 -7.77,0 -14.12,6.36 -14.12,14.12"
   style="fill:#666699;fill-opacity:0.70200004;fill-rule:nonzero;stroke:none"
   id="path42"
   inkscape:connector-curvature="0" /><path
   d="m 200.5,149.7 c 0,9.55 7.81,17.37 17.37,17.37 9.55,0 17.37,-7.82 17.37,-17.37 0,-9.55 -7.82,-17.37 -17.37,-17.37 -9.56,0 -17.37,7.82 -17.37,17.37"
   style="fill:#666699;fill-opacity:0.70200004;fill-rule:nonzero;stroke:none"
   id="path44"
   inkscape:connector-curvature="0" /><path
   d="m 482.4,474.52 c 0,3.24 2.65,5.89 5.89,5.89 3.24,0 5.89,-2.65 5.89,-5.89 0,-3.24 -2.65,-5.89 -5.89,-5.89 -3.24,0 -5.89,2.65 -5.89,5.89"
   style="fill:#ab3d3f;fill-opacity:0.70200004;fill-rule:nonzero;stroke:none"
   id="path46"
   inkscape:connector-curvature="0" /><path
   d="m 238.54,333.71 c 0,6.14 5.01,11.15 11.15,11.15 6.13,0 11.15,-5.01 11.15,-11.15 0,-6.13 -5.02,-11.15 -11.15,-11.15 -6.14,0 -11.15,5.02 -11.15,11.15"
   style="fill:#ab3d3f;fill-opacity:0.70200004;fill-rule:nonzero;stroke:none"
   id="path48"
   inkscape:connector-curvature="0" /><path
   d="m 251.2,229.71 c 0,3.81 3.12,6.94 6.94,6.94 3.82,0 6.94,-3.13 6.94,-6.94 0,-3.82 -3.12,-6.95 -6.94,-6.95 -3.82,0 -6.94,3.13 -6.94,6.95"
   style="fill:#666699;fill-opacity:0.70200004;fill-rule:nonzero;stroke:none"
   id="path50"
   inkscape:connector-curvature="0" /><path
   d="m 436.22,376.92 c 0,10.07 8.25,18.32 18.33,18.32 10.08,0 18.32,-8.25 18.32,-18.32 0,-10.08 -8.24,-18.33 -18.32,-18.33 -10.08,0 -18.33,8.25 -18.33,18.33"
   style="fill:#ab3d3f;fill-opacity:0.70200004;fill-rule:nonzero;stroke:none"
   id="path52"
   inkscape:connector-curvature="0" /><path
   d="m 220.07,152.9 c 0,5.34 4.38,9.72 9.72,9.72 5.34,0 9.72,-4.38 9.72,-9.72 0,-5.34 -4.38,-9.72 -9.72,-9.72 -5.34,0 -9.72,4.38 -9.72,9.72"
   style="fill:#666699;fill-opacity:0.70200004;fill-rule:nonzero;stroke:none"
   id="path54"
   inkscape:connector-curvature="0" /><path
   d="m 436.11,464.92 c 0,3.5 2.86,6.37 6.36,6.37 3.51,0 6.37,-2.87 6.37,-6.37 0,-3.5 -2.86,-6.37 -6.37,-6.37 -3.5,0 -6.36,2.87 -6.36,6.37"
   style="fill:#ab3d3f;fill-opacity:0.70200004;fill-rule:nonzero;stroke:none"
   id="path56"
   inkscape:connector-curvature="0" /><path
   d="m 535.62,469.72 c 0,3.35 2.74,6.08 6.08,6.08 3.35,0 6.08,-2.73 6.08,-6.08 0,-3.34 -2.73,-6.08 -6.08,-6.08 -3.34,0 -6.08,2.74 -6.08,6.08"
   style="fill:#ab3d3f;fill-opacity:0.70200004;fill-rule:nonzero;stroke:none"
   id="path58"
   inkscape:connector-curvature="0" /><path
   d="m 455.89,418.52 c 0,11.24 9.19,20.43 20.43,20.43 11.23,0 20.43,-9.19 20.43,-20.43 0,-11.24 -9.2,-20.43 -20.43,-20.43 -11.24,0 -20.43,9.19 -20.43,20.43"
   style="fill:#ab3d3f;fill-opacity:0.70200004;fill-rule:nonzero;stroke:none"
   id="path60"
   inkscape:connector-curvature="0" /><path
   d="m 509.89,453.72 c 0,4.45 3.64,8.09 8.09,8.09 4.45,0 8.09,-3.64 8.09,-8.09 0,-4.45 -3.64,-8.09 -8.09,-8.09 -4.45,0 -8.09,3.64 -8.09,8.09"
   style="fill:#ab3d3f;fill-opacity:0.70200004;fill-rule:nonzero;stroke:none"
   id="path62"
   inkscape:connector-curvature="0" /><path
   d="m 465.63,397.72 c 0,7.23 5.92,13.16 13.16,13.16 7.24,0 13.16,-5.93 13.16,-13.16 0,-7.24 -5.92,-13.16 -13.16,-13.16 -7.24,0 -13.16,5.92 -13.16,13.16"
   style="fill:#ab3d3f;fill-opacity:0.70200004;fill-rule:nonzero;stroke:none"
   id="path64"
   inkscape:connector-curvature="0" /><path
   d="m 577.09,533.73 c 0,5.55 4.54,10.09 10.09,10.09 5.56,0 10.1,-4.54 10.1,-10.09 0,-5.56 -4.54,-10.1 -10.1,-10.1 -5.55,0 -10.09,4.54 -10.09,10.1"
   style="fill:#ab3d3f;fill-opacity:0.70200004;fill-rule:nonzero;stroke:none"
   id="path66"
   inkscape:connector-curvature="0" /><path
   d="m 478.42,448.92 c 0,6.92 5.67,12.59 12.59,12.59 6.92,0 12.58,-5.67 12.58,-12.59 0,-6.92 -5.66,-12.59 -12.58,-12.59 -6.92,0 -12.59,5.67 -12.59,12.59"
   style="fill:#ab3d3f;fill-opacity:0.70200004;fill-rule:nonzero;stroke:none"
   id="path68"
   inkscape:connector-curvature="0" /><path
   d="m 649,615.33 c 0,8.03 6.57,14.6 14.59,14.6 8.03,0 14.6,-6.57 14.6,-14.6 0,-8.03 -6.57,-14.59 -14.6,-14.59 -8.02,0 -14.59,6.56 -14.59,14.59"
   style="fill:#666699;fill-opacity:0.70200004;fill-rule:nonzero;stroke:none"
   id="path70"
   inkscape:connector-curvature="0" /><path
   d="m 460.38,455.32 c 0,3.24 2.65,5.89 5.89,5.89 3.24,0 5.89,-2.65 5.89,-5.89 0,-3.24 -2.65,-5.89 -5.89,-5.89 -3.24,0 -5.89,2.65 -5.89,5.89"
   style="fill:#ab3d3f;fill-opacity:0.70200004;fill-rule:nonzero;stroke:none"
   id="path72"
   inkscape:connector-curvature="0" /><path
   d="m 75.46,146.5 c 0,14.82 12.12,26.94 26.94,26.94 14.81,0 26.93,-12.12 26.93,-26.94 0,-14.81 -12.12,-26.94 -26.93,-26.94 -14.82,0 -26.94,12.13 -26.94,26.94"
   style="fill:#666699;fill-opacity:0.70200004;fill-rule:nonzero;stroke:none"
   id="path74"
   inkscape:connector-curvature="0" /><path
   d="m 198.73,296.91 c 0,8.87 7.26,16.13 16.13,16.13 8.87,0 16.12,-7.26 16.12,-16.13 0,-8.87 -7.25,-16.13 -16.12,-16.13 -8.87,0 -16.13,7.26 -16.13,16.13"
   style="fill:#666699;fill-opacity:0.70200004;fill-rule:nonzero;stroke:none"
   id="path76"
   inkscape:connector-curvature="0" /><path
   d="m 295.93,322.51 c 0,4.92 4.03,8.95 8.95,8.95 4.93,0 8.95,-4.03 8.95,-8.95 0,-4.92 -4.02,-8.95 -8.95,-8.95 -4.92,0 -8.95,4.03 -8.95,8.95"
   style="fill:#ab3d3f;fill-opacity:0.70200004;fill-rule:nonzero;stroke:none"
   id="path78"
   inkscape:connector-curvature="0" /><path
   d="m 250.53,280.91 c 0,29.23 23.92,53.15 53.15,53.15 29.23,0 53.15,-23.92 53.15,-53.15 0,-29.23 -23.92,-53.15 -53.15,-53.15 -29.23,0 -53.15,23.92 -53.15,53.15"
   style="fill:#ab3d3f;fill-opacity:0.70200004;fill-rule:nonzero;stroke:none"
   id="path80"
   inkscape:connector-curvature="0" /><text
   transform="scale(1,-1)"
   id="text82"
   x="442.48999"
   y="-403.39001"><tspan
     style="font-size:11px;font-variant:normal;font-weight:normal;writing-mode:lr-tb;fill:#000000;fill-opacity:0.70200004;fill-rule:nonzero;stroke:none;font-family:Open Sans;-inkscape-font-specification:OpenSans"
     x="442.48999 449.233"
     y="-403.39001"
     sodipodi:role="line"
     id="tspan84">AG</tspan></text>






<text
   transform="scale(1,-1)"
   id="text86"
   x="483.35001"
   y="-536.20001"><tspan
     style="font-size:11px;font-variant:normal;font-weight:normal;writing-mode:lr-tb;fill:#000000;fill-opacity:0.70200004;fill-rule:nonzero;stroke:none;font-family:Open Sans;-inkscape-font-specification:OpenSans"
     x="483.35001 490.31299"
     y="-536.20001"
     sodipodi:role="line"
     id="tspan88">AI</tspan></text>






<text
   transform="scale(1,-1)"
   id="text90"
   x="459.17999"
   y="-390.59"><tspan
     style="font-size:11px;font-variant:normal;font-weight:normal;writing-mode:lr-tb;fill:#000000;fill-opacity:0.70200004;fill-rule:nonzero;stroke:none;font-family:Open Sans;-inkscape-font-specification:OpenSans"
     x="459.17999 466.14301"
     y="-390.59"
     sodipodi:role="line"
     id="tspan92">AR</tspan></text>






<text
   transform="scale(1,-1)"
   id="text94"
   x="318.59"
   y="-337.79001"><tspan
     style="font-size:11px;font-variant:normal;font-weight:normal;writing-mode:lr-tb;fill:#000000;fill-opacity:0.70200004;fill-rule:nonzero;stroke:none;font-family:Open Sans;-inkscape-font-specification:OpenSans"
     x="318.59 325.71799"
     y="-337.79001"
     sodipodi:role="line"
     id="tspan96">BE</tspan></text>






<text
   transform="scale(1,-1)"
   id="text98"
   x="345.45001"
   y="-329.79001"><tspan
     style="font-size:11px;font-variant:normal;font-weight:normal;writing-mode:lr-tb;fill:#000000;fill-opacity:0.70200004;fill-rule:nonzero;stroke:none;font-family:Open Sans;-inkscape-font-specification:OpenSans"
     x="345.45001 352.578"
     y="-329.79001"
     sodipodi:role="line"
     id="tspan100">BL</tspan></text>






<text
   transform="scale(1,-1)"
   id="text102"
   x="280.81"
   y="-144.17"><tspan
     style="font-size:11px;font-variant:normal;font-weight:normal;writing-mode:lr-tb;fill:#000000;fill-opacity:0.70200004;fill-rule:nonzero;stroke:none;font-family:Open Sans;-inkscape-font-specification:OpenSans"
     x="280.81 287.93799"
     y="-144.17"
     sodipodi:role="line"
     id="tspan104">BS</tspan></text>






<text
   transform="scale(1,-1)"
   id="text106"
   x="329.94"
   y="-296.17999"><tspan
     style="font-size:11px;font-variant:normal;font-weight:normal;writing-mode:lr-tb;fill:#000000;fill-opacity:0.70200004;fill-rule:nonzero;stroke:none;font-family:Open Sans;-inkscape-font-specification:OpenSans"
     x="329.94 335.616"
     y="-296.17999"
     sodipodi:role="line"
     id="tspan108">FR</tspan></text>






<text
   transform="scale(1,-1)"
   id="text110"
   x="207.60999"
   y="-145.77"><tspan
     style="font-size:11px;font-variant:normal;font-weight:normal;writing-mode:lr-tb;fill:#000000;fill-opacity:0.70200004;fill-rule:nonzero;stroke:none;font-family:Open Sans;-inkscape-font-specification:OpenSans"
     x="207.60999 215.61798"
     y="-145.77"
     sodipodi:role="line"
     id="tspan112">GE</tspan></text>






<text
   transform="scale(1,-1)"
   id="text114"
   x="481.42999"
   y="-470.60001"><tspan
     style="font-size:11px;font-variant:normal;font-weight:normal;writing-mode:lr-tb;fill:#000000;fill-opacity:0.70200004;fill-rule:nonzero;stroke:none;font-family:Open Sans;-inkscape-font-specification:OpenSans"
     x="481.42999 489.43799"
     y="-470.60001"
     sodipodi:role="line"
     id="tspan116">GL</tspan></text>






<text
   transform="scale(1,-1)"
   id="text118"
   x="242.28"
   y="-329.79001"><tspan
     style="font-size:11px;font-variant:normal;font-weight:normal;writing-mode:lr-tb;fill:#000000;fill-opacity:0.70200004;fill-rule:nonzero;stroke:none;font-family:Open Sans;-inkscape-font-specification:OpenSans"
     x="242.28 250.28799"
     y="-329.79001"
     sodipodi:role="line"
     id="tspan120">GR</tspan></text>






<text
   transform="scale(1,-1)"
   id="text122"
   x="252.67"
   y="-225.78"><tspan
     style="font-size:11px;font-variant:normal;font-weight:normal;writing-mode:lr-tb;fill:#000000;fill-opacity:0.70200004;fill-rule:nonzero;stroke:none;font-family:Open Sans;-inkscape-font-specification:OpenSans"
     x="252.67 255.60699"
     y="-225.78"
     sodipodi:role="line"
     id="tspan124">JU</tspan></text>






<text
   transform="scale(1,-1)"
   id="text126"
   x="447.73999"
   y="-372.98999"><tspan
     style="font-size:11px;font-variant:normal;font-weight:normal;writing-mode:lr-tb;fill:#000000;fill-opacity:0.70200004;fill-rule:nonzero;stroke:none;font-family:Open Sans;-inkscape-font-specification:OpenSans"
     x="447.73999 453.33899"
     y="-372.98999"
     sodipodi:role="line"
     id="tspan128">LU</tspan></text>






<text
   transform="scale(1,-1)"
   id="text130"
   x="222.59"
   y="-148.97"><tspan
     style="font-size:11px;font-variant:normal;font-weight:normal;writing-mode:lr-tb;fill:#000000;fill-opacity:0.70200004;fill-rule:nonzero;stroke:none;font-family:Open Sans;-inkscape-font-specification:OpenSans"
     x="222.59 230.884"
     y="-148.97"
     sodipodi:role="line"
     id="tspan132">NE</tspan></text>






<text
   transform="scale(1,-1)"
   id="text134"
   x="433.23001"
   y="-460.98999"><tspan
     style="font-size:11px;font-variant:normal;font-weight:normal;writing-mode:lr-tb;fill:#000000;fill-opacity:0.70200004;fill-rule:nonzero;stroke:none;font-family:Open Sans;-inkscape-font-specification:OpenSans"
     x="433.23001 441.52399"
     y="-460.98999"
     sodipodi:role="line"
     id="tspan136">NW</tspan></text>






<text
   transform="scale(1,-1)"
   id="text138"
   x="532.38"
   y="-465.79001"><tspan
     style="font-size:11px;font-variant:normal;font-weight:normal;writing-mode:lr-tb;fill:#000000;fill-opacity:0.70200004;fill-rule:nonzero;stroke:none;font-family:Open Sans;-inkscape-font-specification:OpenSans"
     x="532.38 540.83899"
     y="-465.79001"
     sodipodi:role="line"
     id="tspan140">OW</tspan></text>






<text
   transform="scale(1,-1)"
   id="text142"
   x="469.29001"
   y="-414.59"><tspan
     style="font-size:11px;font-variant:normal;font-weight:normal;writing-mode:lr-tb;fill:#000000;fill-opacity:0.70200004;fill-rule:nonzero;stroke:none;font-family:Open Sans;-inkscape-font-specification:OpenSans"
     x="469.29001 475.32901"
     y="-414.59"
     sodipodi:role="line"
     id="tspan144">SG</tspan></text>






<text
   transform="scale(1,-1)"
   id="text146"
   x="510.89999"
   y="-449.79001"><tspan
     style="font-size:11px;font-variant:normal;font-weight:normal;writing-mode:lr-tb;fill:#000000;fill-opacity:0.70200004;fill-rule:nonzero;stroke:none;font-family:Open Sans;-inkscape-font-specification:OpenSans"
     x="510.89999 516.93903"
     y="-449.79001"
     sodipodi:role="line"
     id="tspan148">SH</tspan></text>






<text
   transform="scale(1,-1)"
   id="text150"
   x="471.48999"
   y="-393.79001"><tspan
     style="font-size:11px;font-variant:normal;font-weight:normal;writing-mode:lr-tb;fill:#000000;fill-opacity:0.70200004;fill-rule:nonzero;stroke:none;font-family:Open Sans;-inkscape-font-specification:OpenSans"
     x="471.48999 477.52899"
     y="-393.79001"
     sodipodi:role="line"
     id="tspan152">SO</tspan></text>






<text
   transform="scale(1,-1)"
   id="text154"
   x="581.02002"
   y="-529.79999"><tspan
     style="font-size:11px;font-variant:normal;font-weight:normal;writing-mode:lr-tb;fill:#000000;fill-opacity:0.70200004;fill-rule:nonzero;stroke:none;font-family:Open Sans;-inkscape-font-specification:OpenSans"
     x="581.02002 587.05902"
     y="-529.79999"
     sodipodi:role="line"
     id="tspan156">SZ</tspan></text>






<text
   transform="scale(1,-1)"
   id="text158"
   x="484.07001"
   y="-444.98999"><tspan
     style="font-size:11px;font-variant:normal;font-weight:normal;writing-mode:lr-tb;fill:#000000;fill-opacity:0.70200004;fill-rule:nonzero;stroke:none;font-family:Open Sans;-inkscape-font-specification:OpenSans"
     x="484.07001 489.93301"
     y="-444.98999"
     sodipodi:role="line"
     id="tspan160">TG</tspan></text>






<text
   transform="scale(1,-1)"
   id="text162"
   x="659.02002"
   y="-611.40002"><tspan
     style="font-size:11px;font-variant:normal;font-weight:normal;writing-mode:lr-tb;fill:#000000;fill-opacity:0.70200004;fill-rule:nonzero;stroke:none;font-family:Open Sans;-inkscape-font-specification:OpenSans"
     x="659.02002 665.10303"
     y="-611.40002"
     sodipodi:role="line"
     id="tspan164">TI</tspan></text>






<text
   transform="scale(1,-1)"
   id="text166"
   x="458.85999"
   y="-451.39001"><tspan
     style="font-size:11px;font-variant:normal;font-weight:normal;writing-mode:lr-tb;fill:#000000;fill-opacity:0.70200004;fill-rule:nonzero;stroke:none;font-family:Open Sans;-inkscape-font-specification:OpenSans"
     x="458.85999 466.86801"
     y="-451.39001"
     sodipodi:role="line"
     id="tspan168">UR</tspan></text>






<text
   transform="scale(1,-1)"
   id="text170"
   x="95.110001"
   y="-142.57001"><tspan
     style="font-size:11px;font-variant:normal;font-weight:normal;writing-mode:lr-tb;fill:#000000;fill-opacity:0.70200004;fill-rule:nonzero;stroke:none;font-family:Open Sans;-inkscape-font-specification:OpenSans"
     x="95.110001 101.655"
     y="-142.57001"
     sodipodi:role="line"
     id="tspan172">VD</tspan></text>






<text
   transform="scale(1,-1)"
   id="text174"
   x="208.56"
   y="-292.98001"><tspan
     style="font-size:11px;font-variant:normal;font-weight:normal;writing-mode:lr-tb;fill:#000000;fill-opacity:0.70200004;fill-rule:nonzero;stroke:none;font-family:Open Sans;-inkscape-font-specification:OpenSans"
     x="208.56 215.105"
     y="-292.98001"
     sodipodi:role="line"
     id="tspan176">VS</tspan></text>






<text
   transform="scale(1,-1)"
   id="text178"
   x="297.79001"
   y="-318.59"><tspan
     style="font-size:11px;font-variant:normal;font-weight:normal;writing-mode:lr-tb;fill:#000000;fill-opacity:0.70200004;fill-rule:nonzero;stroke:none;font-family:Open Sans;-inkscape-font-specification:OpenSans"
     x="297.79001 303.961"
     y="-318.59"
     sodipodi:role="line"
     id="tspan180">ZG</tspan></text>






<text
   transform="scale(1,-1)"
   id="text182"
   x="296.48001"
   y="-276.98001"><tspan
     style="font-size:11px;font-variant:normal;font-weight:normal;writing-mode:lr-tb;fill:#000000;fill-opacity:0.70200004;fill-rule:nonzero;stroke:none;font-family:Open Sans;-inkscape-font-specification:OpenSans"
     x="296.48001 302.76099"
     y="-276.98001"
     sodipodi:role="line"
     id="tspan184">ZH</tspan></text>






<text
   transform="scale(1,-1)"
   id="text194"
   x="48.400002"
   y="-159.10001"><tspan
     style="font-size:14px;font-variant:normal;font-weight:normal;writing-mode:lr-tb;fill:#000000;fill-opacity:1;fill-rule:nonzero;stroke:none;font-family:Open Sans;-inkscape-font-specification:OpenSans"
     x="48.400002 56.408001"
     y="-159.10001"
     sodipodi:role="line"
     id="tspan196">40</tspan></text>






<text
   transform="scale(1,-1)"
   id="text198"
   x="48.400002"
   y="-319.10999"><tspan
     style="font-size:14px;font-variant:normal;font-weight:normal;writing-mode:lr-tb;fill:#000000;fill-opacity:1;fill-rule:nonzero;stroke:none;font-family:Open Sans;-inkscape-font-specification:OpenSans"
     x="48.400002 56.408001"
     y="-319.10999"
     sodipodi:role="line"
     id="tspan200">50</tspan></text>






<text
   transform="scale(1,-1)"
   id="text202"
   x="48.400002"
   y="-479.12"><tspan
     style="font-size:14px;font-variant:normal;font-weight:normal;writing-mode:lr-tb;fill:#000000;fill-opacity:1;fill-rule:nonzero;stroke:none;font-family:Open Sans;-inkscape-font-specification:OpenSans"
     x="48.400002 56.408001"
     y="-479.12"
     sodipodi:role="line"
     id="tspan204">60</tspan></text>






<path
   d="m 74.34,88.91 617.31,0"
   style="fill:none;stroke:#7e8279;stroke-width:1.90999997;stroke-linecap:round;stroke-linejoin:round;stroke-miterlimit:10;stroke-opacity:1;stroke-dasharray:none"
   id="path206"
   inkscape:connector-curvature="0" /><path
   d="m 178.82,81.83 0,7.08"
   style="fill:none;stroke:#7e8279;stroke-width:0.63999999;stroke-linecap:butt;stroke-linejoin:round;stroke-miterlimit:10;stroke-opacity:1;stroke-dasharray:none"
   id="path208"
   inkscape:connector-curvature="0" /><path
   d="m 322.4,81.83 0,7.08"
   style="fill:none;stroke:#7e8279;stroke-width:0.63999999;stroke-linecap:butt;stroke-linejoin:round;stroke-miterlimit:10;stroke-opacity:1;stroke-dasharray:none"
   id="path210"
   inkscape:connector-curvature="0" /><path
   d="m 465.97,81.83 0,7.08"
   style="fill:none;stroke:#7e8279;stroke-width:0.63999999;stroke-linecap:butt;stroke-linejoin:round;stroke-miterlimit:10;stroke-opacity:1;stroke-dasharray:none"
   id="path212"
   inkscape:connector-curvature="0" /><path
   d="m 609.55,81.83 0,7.08"
   style="fill:none;stroke:#7e8279;stroke-width:0.63999999;stroke-linecap:butt;stroke-linejoin:round;stroke-miterlimit:10;stroke-opacity:1;stroke-dasharray:none"
   id="path214"
   inkscape:connector-curvature="0" /><text
   transform="scale(1,-1)"
   id="text216"
   x="170.81"
   y="-69"><tspan
     style="font-size:14px;font-variant:normal;font-weight:normal;writing-mode:lr-tb;fill:#000000;fill-opacity:1;fill-rule:nonzero;stroke:none;font-family:Open Sans;-inkscape-font-specification:OpenSans"
     x="170.81 178.81799"
     y="-69"
     sodipodi:role="line"
     id="tspan218">20</tspan></text>






<text
   transform="scale(1,-1)"
   id="text220"
   x="314.39001"
   y="-69"><tspan
     style="font-size:14px;font-variant:normal;font-weight:normal;writing-mode:lr-tb;fill:#000000;fill-opacity:1;fill-rule:nonzero;stroke:none;font-family:Open Sans;-inkscape-font-specification:OpenSans"
     x="314.39001 322.39801"
     y="-69"
     sodipodi:role="line"
     id="tspan222">25</tspan></text>






<text
   transform="scale(1,-1)"
   id="text224"
   x="457.97"
   y="-69"><tspan
     style="font-size:14px;font-variant:normal;font-weight:normal;writing-mode:lr-tb;fill:#000000;fill-opacity:1;fill-rule:nonzero;stroke:none;font-family:Open Sans;-inkscape-font-specification:OpenSans"
     x="457.97 465.978"
     y="-69"
     sodipodi:role="line"
     id="tspan226">30</tspan></text>






<text
   transform="scale(1,-1)"
   id="text228"
   x="601.53998"
   y="-69"><tspan
     style="font-size:14px;font-variant:normal;font-weight:normal;writing-mode:lr-tb;fill:#000000;fill-opacity:1;fill-rule:nonzero;stroke:none;font-family:Open Sans;-inkscape-font-specification:OpenSans"
     x="601.53998 609.54797"
     y="-69"
     sodipodi:role="line"
     id="tspan230">35</tspan></text>






<text
   transform="scale(1,-1)"
   id="text232"
   x="342.46429"
   y="-47.869999"
   sodipodi:linespacing="125%"
   style="line-height:125%"><tspan
     style="font-size:18px;font-style:normal;font-variant:normal;font-weight:600;font-stretch:normal;text-align:start;line-height:125%;writing-mode:lr-tb;text-anchor:start;fill:#7e8279;fill-opacity:1;fill-rule:nonzero;stroke:none;font-family:Open Sans;-inkscape-font-specification:Open Sans Semi-Bold"
     x="342.46429"
     y="-47.869999"
     sodipodi:role="line"
     id="tspan234">% de oui à l’initiative Ecopop (30.11.2014)</tspan></text>






<text
   transform="scale(1,-1)"
   id="text268"
   x="554.50006"
   y="-7.3699999"><tspan
     style="font-size:9px;font-style:italic;font-variant:normal;writing-mode:lr-tb;fill:#000000;fill-opacity:0.6;fill-rule:nonzero;stroke:none;font-family:Open Sans;-inkscape-font-specification:OpenSans-Italic"
     x="554.50006 559.01807 564.06708 569.26007 572.64404 576.69409 581.1311 583.40808 585.74805 592.22809 595.04504 597.86206 600.14807 604.19806 608.63507 610.9751 615.22308 619.6601 624.85309 629.2901 632.67407 637.75909 640.04504 642.38507 647.57806 652.01508 654.3551 656.64105 661.72607 664.0661 668.58405 671.50006 676.58508 679.5011 681.78705 685.6391 688.55505 690.84106 696.03406 701.22705 705.66406"
     y="-7.3699999"
     sodipodi:role="line"
     id="tspan270">Source: Office Fédéral de la Statistique </tspan></text>






<text
   id="text232-4"
   x="98.951935"
   y="38.548111"
   sodipodi:linespacing="125%"
   style="font-size:12px;line-height:125%"
   transform="matrix(6.6561102e-4,0.99999978,0.99999978,-6.6561102e-4,0,0)"><tspan
     style="font-size:18px;font-style:normal;font-variant:normal;font-weight:600;font-stretch:normal;text-align:start;line-height:125%;writing-mode:lr-tb;text-anchor:start;fill:#7e8279;fill-opacity:1;fill-rule:nonzero;stroke:none;font-family:Open Sans;-inkscape-font-specification:Open Sans Semi-Bold"
     x="98.951935"
     y="38.548111"
     sodipodi:role="line"
     id="tspan234-8">% de oui à l’initiative «contre l’immigration de masse» (09.02.2014)</tspan></text>






<text
   xml:space="preserve"
   style="font-size:22.39999962px;font-style:normal;font-variant:normal;font-weight:600;font-stretch:normal;text-align:start;line-height:110.00000238%;letter-spacing:0px;word-spacing:0px;writing-mode:lr-tb;text-anchor:start;fill:#000000;fill-opacity:1;stroke:none;font-family:Open Sans;-inkscape-font-specification:Open Sans Semi-Bold"
   x="71.015526"
   y="-690.50751"
   id="text4303"
   sodipodi:linespacing="110%"
   transform="scale(1,-1)"><tspan
     sodipodi:role="line"
     x="71.015526"
     y="-690.50751"
     style="font-size:25.60000038px;font-style:normal;font-variant:normal;font-weight:600;font-stretch:normal;text-align:start;line-height:110.00000238%;writing-mode:lr-tb;text-anchor:start;font-family:Open Sans;-inkscape-font-specification:Open Sans Semi-Bold"
     id="tspan4311">Votes Ecopop et «contre l'immigration de masse»</tspan><tspan
     sodipodi:role="line"
     x="71.015526"
     y="-662.34753"
     style="font-size:25.60000038px;font-style:normal;font-variant:normal;font-weight:600;font-stretch:normal;text-align:start;line-height:110.00000238%;writing-mode:lr-tb;text-anchor:start;fill:#666666;font-family:Open Sans;-inkscape-font-specification:Open Sans Semi-Bold"
     id="tspan3102" /></text>






<text
   xml:space="preserve"
   style="font-size:14px;font-style:normal;font-variant:normal;font-weight:normal;font-stretch:normal;text-align:start;line-height:125%;letter-spacing:0px;word-spacing:0px;writing-mode:lr-tb;text-anchor:start;fill:#000000;fill-opacity:1;stroke:none;font-family:Open Sans;-inkscape-font-specification:Open Sans"
   x="69.460632"
   y="-610.73529"
   id="text4313"
   sodipodi:linespacing="125%"
   transform="scale(1,-1)"><tspan
     sodipodi:role="line"
     id="tspan4315"
     x="69.460632"
     y="-610.73529"
     style="font-size:12.80000019px;fill:#666666">La taille des cercles est proportionnelle au nombre total de bulletins </tspan><tspan
     sodipodi:role="line"
     x="69.460632"
     y="-594.73529"
     style="font-size:12.80000019px;fill:#666666"
     id="tspan3103">de vote déposés pour l'initiative Ecopop. Les cantons latins sont en bleu. </tspan></text>






<text
   xml:space="preserve"
   style="font-size:14px;font-style:normal;font-variant:normal;font-weight:normal;font-stretch:normal;text-align:start;line-height:125%;letter-spacing:0px;word-spacing:0px;writing-mode:lr-tb;text-anchor:start;fill:#000000;fill-opacity:1;stroke:none;font-family:Open Sans;-inkscape-font-specification:Open Sans"
   x="72.442924"
   y="-662.19904"
   id="text3140"
   sodipodi:linespacing="125%"
   transform="scale(1,-1)"><tspan
     sodipodi:role="line"
     x="72.442924"
     y="-662.19904"
     id="tspan3144"
     style="font-size:19.20000076px">Les cantons les plus favorables à l'immigration restent les mêmes </tspan></text>


</g></svg>